<?xml version="1.0" encoding="utf-8" ?>
<svg xmlns="http://www.w3.org/2000/svg" xmlns:xlink="http://www.w3.org/1999/xlink" width="1293" height="970">
	<path fill="#FEFEFE" transform="scale(0.947253 0.947266)" d="M0 0L1363.83 0C1366 3.79054 1365 11.8007 1365 16.2249L1365.01 810.316L1365 969.913C1365 977.573 1366.16 1017.87 1364.59 1022.54C1364.42 1023.05 1364.09 1023.55 1363.83 1024L0 1024L0 0Z"/>
	<path fill="#0CBDA9" transform="scale(0.947253 0.947266)" d="M900.495 123.24C903.262 123.491 906.109 123.775 908.521 125.295C910.126 126.307 911.29 127.796 911.64 129.684C912.304 133.271 910.294 136.072 908.445 138.906C905.821 138.811 903.057 138.835 900.678 137.573C899.107 136.739 897.804 135.49 897.365 133.72C896.389 129.784 898.594 126.47 900.495 123.24Z"/>
	<path transform="scale(0.947253 0.947266)" d="M102.629 770.485C105.801 770.465 108.991 770.434 111.813 772.129C113.727 773.278 114.901 774.939 115.252 777.156C115.981 781.76 113.293 785.051 110.653 788.422C110.509 788.443 110.365 788.471 110.219 788.484C107.114 788.759 103.116 788.137 100.719 786.037C99.0619 784.585 98.2409 782.539 98.1265 780.364C97.9027 776.112 100.051 773.517 102.629 770.485Z"/>
	<path transform="scale(0.947253 0.947266)" d="M1234.19 282.999C1236.33 282.676 1238.29 282.482 1240.39 283.184C1243.36 284.179 1246.22 286.542 1247.42 289.488C1248.2 291.434 1248.25 293.579 1247.29 295.473C1245.89 298.217 1243.23 299.184 1240.46 300.021C1239.07 301.274 1236.46 302.258 1234.62 302.166C1232.93 301.144 1232.22 299.905 1231.67 298.005C1230.02 292.322 1231.34 287.851 1234.19 282.999Z"/>
	<path transform="scale(0.947253 0.947266)" d="M1127.68 102.328C1129.98 101.697 1131.87 101.586 1134.15 102.397C1137.18 103.468 1139.95 105.791 1141.2 108.789C1142.03 110.779 1142.18 112.909 1141.18 114.868C1139.92 117.338 1137.74 118.168 1135.24 118.942C1135.04 119.117 1134.86 119.322 1134.63 119.469C1133.16 120.445 1130.58 121.15 1128.83 120.684C1127.2 120.25 1125.79 119.253 1125.05 117.719C1122.76 112.996 1125.78 107.403 1127.39 103.121L1127.68 102.328Z"/>
	<path transform="scale(0.947253 0.947266)" d="M455.238 98.6966C458.236 99.6918 461.241 100.722 463.423 103.149C464.918 104.813 465.726 106.907 465.484 109.152C464.999 113.654 461.591 116.294 458.32 118.917C455.161 118.408 451.267 116.959 449.272 114.367C447.959 112.662 447.515 110.629 447.841 108.515C448.549 103.915 451.816 101.373 455.238 98.6966Z"/>
	<path transform="scale(0.947253 0.947266)" d="M86.7458 445.93C89.9901 446 93.407 446.391 95.9268 448.649C97.5372 450.091 98.362 451.971 98.4071 454.128C98.502 458.671 95.7178 461.787 92.8086 464.867C89.0175 464.844 85.2418 464.429 82.5277 461.481C80.992 459.813 80.3373 457.795 80.5143 455.541C80.8548 451.203 83.689 448.6 86.7458 445.93Z"/>
	<path fill="#0CBDA9" transform="scale(0.947253 0.947266)" d="M795.875 815.652C807.958 814.564 847.102 810.639 856.291 818.863C857.324 819.788 858.043 820.945 858.023 822.365C857.994 824.465 856.611 826.759 855.115 828.159C852.72 830.402 849.573 830.594 846.486 830.73C829.699 830.015 813.078 830.281 796.285 830.669L795.875 815.652Z"/>
	<path transform="scale(0.947253 0.947266)" d="M496.074 779.395C504.446 779.036 512.05 782.741 520.184 783.974C529.422 785.374 539.203 784.725 548.533 784.601L548.541 797.517C549.412 798.351 550.312 799.193 551.085 800.121C557.282 807.55 555.193 818.407 554.378 827.236C548.816 827.467 543.359 827.55 537.802 827.093C536.422 821.987 535.225 816.105 535.891 810.807C536.636 804.89 539.27 801.571 543.828 798.03L543.904 789.371C537.79 789.058 531.16 788.159 525.077 788.637C515.706 789.373 507.221 792.876 497.663 791.278C494.645 790.773 491.59 790.306 489.689 787.683C489.114 785.893 489.335 785.042 489.918 783.28C491.551 781.186 493.717 780.444 496.074 779.395Z"/>
	<path fill="#0CBDA9" transform="scale(0.947253 0.947266)" d="M1226.11 523.666C1233.17 523.38 1239.8 524.26 1245.76 528.327Q1246.32 528.715 1246.87 529.131Q1247.41 529.547 1247.94 529.99Q1248.46 530.433 1248.96 530.901Q1249.46 531.37 1249.93 531.863Q1250.41 532.356 1250.86 532.872Q1251.31 533.388 1251.74 533.926Q1252.16 534.464 1252.56 535.022Q1252.95 535.581 1253.32 536.159Q1253.69 536.736 1254.03 537.332Q1254.37 537.927 1254.68 538.539Q1254.98 539.151 1255.26 539.777Q1255.54 540.403 1255.79 541.043Q1256.03 541.682 1256.25 542.333Q1256.46 542.984 1256.64 543.645Q1256.82 544.306 1256.97 544.975Q1257.12 545.644 1257.23 546.32C1258.36 552.97 1256.93 560.069 1252.96 565.564C1248.23 572.094 1241.54 574.748 1233.83 576.023C1230.96 577.465 1225.89 576.78 1222.87 575.83C1216.39 573.788 1210.88 568.489 1207.77 562.543C1204.59 556.441 1203.71 549.188 1205.88 542.604C1209.13 532.733 1217.34 527.99 1226.11 523.666Z"/>
	<path fill="#FEFEFE" transform="scale(0.947253 0.947266)" d="M1225.77 532.332C1228.65 532.055 1232.1 531.808 1234.6 533.581C1235.7 534.362 1236.47 535.555 1236.69 536.869C1237.12 539.535 1235.67 541.936 1234.16 543.993C1237.69 543.921 1243.37 543.061 1246.34 545.338C1247.5 546.226 1248.32 547.451 1248.29 548.95C1248.13 555.998 1238.72 552.213 1235.58 554.966C1235.8 556.586 1236.47 558.691 1236.38 560.275C1236.29 562.04 1235.17 562.693 1233.94 563.666C1233.19 565.202 1232.02 566.64 1230.38 567.207C1225.82 565.438 1227.16 558.097 1224.39 554.636C1223.2 553.152 1218.71 553.832 1216.79 553.482C1214.98 553.152 1214.45 552.552 1213.43 551.098C1212.53 542.4 1222.98 545.854 1226.11 540.713C1227.45 538.496 1226.31 534.715 1225.77 532.332Z"/>
	<path transform="scale(0.947253 0.947266)" d="M790.115 70.3756C807.899 69.5213 825.721 68.4099 842.712 74.7583C843.812 78.5697 844.649 82.3439 845.219 86.2719C849.809 117.887 845.949 152.392 845.91 184.391C845.886 204.412 846.37 224.451 846.488 244.475C846.547 254.356 846.986 264.443 846.252 274.297C845.95 278.356 845.315 284.134 842.642 287.366C839.886 290.698 835.087 291.337 831.057 291.759C809.554 294.011 786.041 292.139 764.318 292.044L655.173 291.44C632.413 291.423 609.413 291.188 586.689 292.439C575.513 292.996 545.05 295.715 536.473 287.764C532.591 284.165 532.293 276.917 532.106 271.959C530.933 240.753 532.391 209.445 532.196 178.223L531.672 124.202C531.531 113.643 530.942 102.99 531.454 92.4429C531.681 87.7668 531.584 78.4826 534.859 75.0447C537.476 72.2963 540.277 71.6604 543.913 71.2922C554.386 70.2317 565.014 70.6151 575.528 70.6475L621.588 70.7711C677.732 70.9332 733.981 71.8483 790.115 70.3756Z"/>
	<path fill="#FEFEFE" transform="scale(0.947253 0.947266)" d="M787.833 82.9399C789.778 84.16 791.53 85.1618 792.42 87.3553C792.657 89.7434 791.709 91.2891 790.685 93.3596C790.432 93.265 790.179 93.1747 789.928 93.0758C787.69 92.1928 786.78 91.1048 785.84 89.0237C785.816 86.6172 786.769 85.0191 787.833 82.9399Z"/>
	<path fill="#FEFEFE" transform="scale(0.947253 0.947266)" d="M567.77 83.5115C570.075 84.5928 572.084 85.4835 573.072 87.9587C573.216 90.3161 572.382 91.9478 571.464 94.051C569.408 92.8639 567.752 92.0567 566.498 89.9466C565.988 87.5509 566.932 85.715 567.77 83.5115Z"/>
	<path fill="#FEFEFE" transform="scale(0.947253 0.947266)" d="M816.491 82.8568C818.774 83.9524 820.538 84.9762 821.616 87.3255C821.812 89.6249 820.946 91.1454 819.971 93.1357C817.713 92.4448 816.024 91.3485 814.894 89.2714C814.54 86.6758 815.42 85.1312 816.491 82.8568Z"/>
	<path fill="#FEFEFE" transform="scale(0.947253 0.947266)" d="M801.828 82.886C803.943 84.0461 805.614 84.8994 806.751 87.1002C807.115 89.5085 806.254 91.0834 805.315 93.23C804.599 93.0033 803.886 92.791 803.213 92.4519C801.507 91.5927 800.653 90.7848 799.977 89.0145C799.829 86.5407 800.719 84.9928 801.828 82.886Z"/>
	<path fill="#FEFEFE" transform="scale(0.947253 0.947266)" d="M552.974 83.4553C555.23 84.2794 557.246 84.8882 558.674 86.9107C559.483 89.3878 558.742 91.4478 558.145 93.8885C555.915 92.8781 553.876 92.1832 552.47 90.0752C551.783 87.6636 552.398 85.8112 552.974 83.4553Z"/>
	<path fill="#0CBDA9" transform="scale(0.947253 0.947266)" d="M537.195 108.168L840.5 108.174L840.986 208.209C841.257 228.457 842.532 248.794 841.543 269.039C841.287 274.275 841.218 280.468 838.745 285.166C832.823 286.58 826.546 287.006 820.471 287.248C806.685 287.795 792.732 286.757 778.925 286.695L686.255 286.625L600.52 286.704C584.259 286.815 567.971 287.792 551.711 287.065C548.149 286.906 542.455 286.653 539.823 283.956C537.125 281.191 537.12 271.964 536.916 267.978C535.976 249.62 537.03 231.138 537.095 212.759L537.195 108.168Z"/>
	<path fill="#FEFEFE" transform="scale(0.947253 0.947266)" d="M579.894 134.99L722.651 134.786C751.807 134.695 781.934 132.813 810.902 136.256C814.16 157.094 812.11 177.512 812.04 198.442C811.979 216.954 813.402 234.777 810.786 253.238L800.637 253.727C786.354 254.194 772.031 253.64 757.742 253.566L678.919 253.446L627.28 253.635C607.497 253.855 587.723 254.307 567.986 252.558Q565.932 193.859 568.588 135.185L579.894 134.99Z"/>
	<path fill="#0CBDA9" transform="scale(0.947253 0.947266)" d="M753.077 189.644C764.298 189.938 776.154 188.242 787.193 190.552C789.027 190.936 791.77 191.424 792.802 193.003C789.889 195.225 784.964 195.359 781.433 195.494C771.1 195.136 751.032 197.938 742.328 193.874C741.242 193.367 740.682 193.249 740.268 192.113C743.165 189.404 749.373 189.781 753.077 189.644Z"/>
	<path fill="#0CBDA9" transform="scale(0.947253 0.947266)" d="M599.897 161.048C607.981 160.274 633.473 159.31 640.001 163.427L639.908 164.465C636.02 167.414 629.054 166.76 624.348 166.797C614.023 166.877 603.835 168.355 593.553 166.534C591.425 166.157 587.858 165.593 586.589 163.752C586.709 163.614 586.81 163.459 586.947 163.34C589.567 161.068 596.478 161.233 599.897 161.048Z"/>
	<path fill="#0CBDA9" transform="scale(0.947253 0.947266)" d="M594.722 188.922C602.756 188.386 631.018 187.708 636.982 192.023L636.653 192.864C634.325 194.326 631.666 194.744 629.019 195.312C619.428 195.59 609.659 196.232 600.072 195.909C595.527 195.755 588.914 195.157 585.666 191.641L586.04 190.605C588.73 189.313 591.794 189.219 594.722 188.922Z"/>
	<path fill="#0CBDA9" transform="scale(0.947253 0.947266)" d="M600.169 218.951C610.687 218.556 628.623 216.585 638.312 220.941C639.618 221.529 639.979 221.641 640.507 222.935C638.29 225.223 633.31 224.81 630.347 224.887C619.936 225.697 596.254 227.403 587.7 222.554L587.579 221.509C591.2 218.588 595.758 219.07 600.169 218.951Z"/>
	<path fill="#0CBDA9" transform="scale(0.947253 0.947266)" d="M752.278 218.975C762.391 219.029 785.739 216.728 793.506 222.833L793.03 223.748C789.596 225.23 785.248 225.091 781.536 225.334C770.943 225.223 747.889 228.264 739.051 222.772L738.802 221.667C742.226 218.79 747.994 219.196 752.278 218.975Z"/>
	<path fill="#0CBDA9" transform="scale(0.947253 0.947266)" d="M752.547 160.976C761.404 161.133 770.239 160.777 779.092 160.683C783.161 160.64 789.713 160.53 792.81 163.57L792.783 164.855C789.195 167.97 784.231 167.531 779.731 167.749C768.112 167.352 747.264 170.254 737.393 164.613L737.315 163.661C741.756 160.955 747.498 161.144 752.547 160.976Z"/>
	<path transform="scale(0.947253 0.947266)" d="M677.271 151.51L703.087 151.95L703.1 176.688L726.907 176.748C727.306 180.899 727.863 185.155 727.842 189.325C727.823 193.284 727.139 197.646 724.08 200.453C718.89 205.215 709.597 203.799 703.153 203.332C703.168 211.541 703.389 219.818 702.896 228.012L677.137 228.204L677.101 203.318C673.053 203.659 668.972 203.952 664.909 204.034C661.63 204.1 657.783 203.561 655.419 201.052C652.49 197.944 652.263 193.022 652.374 188.974C652.479 185.15 653.002 180.641 656.05 177.972C660.937 173.695 671.094 175.698 677.076 176.142L677.271 151.51Z"/>
	<path transform="scale(0.947253 0.947266)" d="M294.652 140.279C297.366 138.073 300.089 135.845 302.958 133.844C320.142 121.854 340.815 117.977 361.354 121.655C405.34 129.533 433.348 166.693 457.374 200.982C447.674 210.444 436.375 216.911 424.584 223.381Q424.492 241.235 424.803 259.086C425.404 284.318 428.261 313.849 411.88 335.134C401.463 348.67 386.929 353.484 370.578 355.559L370.595 379.269Q376.444 381.416 382.16 383.896Q387.875 386.375 393.439 389.179Q399.003 391.983 404.397 395.102Q409.791 398.22 414.997 401.644C467.979 436.36 485.23 483.743 497.622 543.483C502.914 542.698 508.248 542.598 513.588 542.422C523.916 542.082 551.328 539.536 558.238 546.796C559.941 548.584 560.073 551.352 560.003 553.687C559.463 571.708 547.451 596.941 542.011 614.763C534.724 638.638 529.16 663.423 519.962 686.646C518.323 690.784 516.147 696.133 512.687 699.119C504.439 706.239 481.131 703.284 470.555 702.539L470.598 819.156C470.665 837.061 471.923 855.151 471.164 873.037C471.033 876.1 471.178 881.105 469.194 883.57C464.791 886.209 458.796 885.408 453.83 885.309Q453.949 914.243 452.503 943.141Q487.258 943.131 522.011 942.67C519.853 939.238 517.333 935.999 514.946 932.722C513.673 920.403 511.663 853.791 515.538 845.694C516.468 843.75 518.767 843.296 520.621 842.564C523.513 836.423 526.073 832.866 532.742 830.539C540.463 827.845 553.11 827.296 560.553 831.144C566.327 834.129 567.578 837.499 569.373 843.363L575.734 844.907C577.789 859.08 577.07 874.237 577.184 888.566C577.279 900.52 578.225 913.347 576.515 925.197C575.596 931.567 573.702 936.843 571.005 942.671L587.101 942.609C584.52 937.422 581.848 931.396 581.798 925.496C581.769 922.065 582.939 918.892 585.489 916.549C597.375 905.626 626.405 911.072 641.594 911.255C647.446 911.325 655.803 910.982 660.083 906.378C662.788 903.467 663.177 897.63 663.53 893.824C665.037 877.592 663.945 860.903 663.916 844.609L663.885 754.633C637.726 754.611 611.542 754.364 585.386 754.674C572.656 754.824 559.234 756.599 546.613 755.126C540.835 754.451 534.644 752.963 530.119 749.073C526.829 746.244 524.724 742.652 524.462 738.266C524.233 734.415 525.161 729.771 527.954 726.992C531.525 723.437 536.875 721.765 541.723 720.928C551.428 719.251 561.723 720.243 571.537 720.441Q588.486 720.665 605.436 720.692C600.167 683.782 597.621 646.508 592.348 609.621C591.212 601.674 586.028 594.361 586.011 586.217C586.007 584.062 586.407 581.494 588.073 579.989C591.958 576.48 599.748 577.639 604.676 577.882C603.689 569.887 603.723 562.964 605.736 555.133C621.746 551.198 654.769 551.015 671.481 553.204C674.442 553.591 679.573 554.363 681.345 557.008C684.874 562.273 682.555 572.327 681.703 578.282C684.299 578.13 686.905 577.972 689.506 577.928C694.373 577.847 701.217 578.746 704.724 582.434C705.965 583.738 706.642 585.416 706.477 587.224C706.025 592.154 701.672 595.414 698.27 598.467C693.96 613.381 693.327 629.345 691.602 644.706Q687.149 682.646 683.746 720.694L704.49 720.59C703.788 711.564 704.159 702.621 704.586 693.592C723.843 691.251 742.635 691.049 761.811 694.16Q761.918 707.7 761.886 721.241C773.94 721.359 786.046 721.467 798.095 721.105C809.536 720.762 821.765 719.398 833.138 720.988C837.572 721.607 843.126 723.143 846.522 726.214C849.464 728.875 850.646 732.775 850.674 736.652C850.706 741.162 849.191 745.78 845.899 748.96C841.471 753.236 834.706 754.313 828.837 754.974C815.095 756.522 800.854 754.855 787.057 754.633Q752.479 754.369 717.9 754.508C717.409 773.289 714.219 797.913 720.271 815.816C722.156 811.817 722.837 806.987 725.162 803.268C728.949 797.215 738.574 801.214 743.566 796.085C744.191 791.943 733.203 789.388 731.639 784.843C731.988 784.111 732.339 783.551 732.986 783.042C740.699 776.974 758.355 778.162 767.444 779.544C770.75 780.047 775.52 780.528 777.643 783.391C777.534 788.776 769.597 790.48 767.268 794.8C766.685 795.881 766.976 795.98 767.28 797.084C771.835 801.229 777.243 798.922 782.534 800.543C788.726 802.441 786.921 807.703 789.336 812.015C790.599 814.27 792.806 814.88 795.13 815.468L795.875 815.652L796.285 830.669C813.078 830.281 829.699 830.015 846.486 830.73C846.296 857.18 852.661 902.582 844.664 926.223C842.537 932.509 839.089 937.365 835.088 942.552C854.653 943.155 874.2 942.791 893.767 942.5C893.841 932.174 892.918 921.808 892.592 911.484C892.134 896.951 892.233 882.307 892.521 867.769C893.173 834.842 897.118 802.036 900.681 769.328L889.694 769.264C889.562 749.877 894.521 730.739 897.072 711.618C898.712 699.331 898.245 685.935 902.255 674.142L903.723 674.14L903.824 673.097L903.141 672.677L903.767 672.294C904.579 672.466 904.558 672.31 905.063 672.953C906.146 674.331 906.172 676.102 906.142 677.783C905.927 689.791 903.421 701.934 901.705 713.809Q898.115 739.098 894.935 764.441C922.672 765.128 950.446 764.501 978.198 765.231L977.767 649.906C960.86 648.419 944.777 647.33 928.053 644.084C929.168 647.912 930.281 652.009 930.683 655.976C930.999 659.095 930.892 661.461 928.829 663.944C917.793 668.735 867.223 666.135 851.575 666.184C833.661 666.24 815.725 667.06 797.812 666.57C791.114 666.386 784.426 665.77 777.753 665.186C773.678 655.493 770.857 645.553 768.096 635.42C759.762 630.788 752.539 625.686 747.503 617.385C737.822 601.424 741.06 583.123 745.136 566.008Q737.48 540.005 729.016 514.253C724.504 500.593 718.608 486.716 716.566 472.431C716.175 469.694 715.275 464.405 717.215 462.145C719.396 459.606 723.429 459.041 726.58 458.76C742.624 457.327 759.04 459.327 775.124 459.377Q825.225 459.494 875.319 458.602C881.154 448.669 889.297 439.882 893.539 429.051C897.631 418.604 897.5 406.909 899.982 396.032C907.698 362.216 918.037 334.472 920.492 298.707C923.204 259.2 909.108 223.617 931.416 186.238C944.102 164.98 965.951 151.325 989.622 145.429C1017.64 138.451 1049.92 141.334 1074.83 156.531C1107.05 176.185 1124.65 215.234 1128.27 251.723C1129.51 264.167 1127.94 277.041 1130.94 289.265C1137.24 314.985 1162.89 325.344 1183.32 337.919C1206.01 351.886 1220.42 372.554 1226.55 398.376C1232.76 424.496 1230.49 452.579 1216.05 475.71Q1215.3 476.912 1214.52 478.095Q1213.74 479.278 1212.93 480.441Q1212.12 481.604 1211.28 482.748Q1210.45 483.891 1209.58 485.013Q1208.72 486.136 1207.83 487.236Q1206.93 488.337 1206.01 489.416Q1205.09 490.494 1204.15 491.55Q1203.2 492.605 1202.23 493.637Q1201.26 494.669 1200.27 495.677Q1199.27 496.685 1198.25 497.668Q1197.23 498.651 1196.19 499.609Q1195.14 500.567 1194.07 501.499Q1193.01 502.431 1191.92 503.336Q1190.83 504.241 1189.72 505.12Q1188.6 505.998 1187.47 506.849Q1186.34 507.699 1185.18 508.522Q1184.03 509.345 1182.86 510.139Q1181.68 510.933 1180.49 511.698Q1179.3 512.463 1178.09 513.198Q1176.88 513.934 1175.65 514.639Q1174.42 515.345 1173.17 516.02Q1171.93 516.695 1170.67 517.339Q1169.4 517.984 1168.13 518.597Q1166.85 519.21 1165.56 519.791Q1164.27 520.373 1162.96 520.923Q1161.65 521.472 1160.34 521.99Q1159.02 522.507 1157.69 522.992Q1156.35 523.477 1155.01 523.929Q1153.67 524.381 1152.32 524.8Q1150.96 525.219 1149.6 525.604Q1148.24 525.99 1146.86 526.342Q1145.49 526.694 1144.11 527.012C1144.62 536.333 1140.24 543.862 1138.43 552.689C1137.7 556.252 1137.82 559.938 1137.91 563.553C1138.19 575.537 1139.63 587.588 1140.68 599.529Q1143.09 626.238 1144.97 652.99C1145.63 662.197 1146.62 671.551 1146.54 680.778C1146.51 684.328 1146.74 690.029 1144.05 692.672C1147.99 696.366 1161.94 707.223 1162.36 712.216C1162.38 712.42 1162.34 712.624 1162.32 712.828C1170.46 706.808 1171.45 693.027 1175.71 684.33Q1178.92 677.823 1182.69 671.625Q1186.46 665.427 1190.76 659.586C1194.51 654.464 1198.52 649.375 1203.12 645.003C1208.5 639.899 1226.35 628.59 1227.53 621.686C1227.57 621.496 1227.57 621.303 1227.58 621.111C1236.99 626.523 1240.15 641.106 1242.8 650.924C1245.66 661.508 1255.95 699.312 1250.51 708.826C1249.95 709.805 1249 710.683 1248.12 711.384L1250.35 712.451L1250.64 713.456C1249.79 714.077 1248.95 714.719 1248.04 715.248C1250.08 717.298 1250.84 719.204 1250.85 722.123C1250.86 725.119 1249.75 729.425 1247.78 731.663C1258.77 727.371 1297.58 707.066 1307.09 711.781C1308.33 712.396 1308.94 713.37 1309.35 714.666C1313.74 728.561 1291.25 780.302 1283.09 793.711C1270.56 814.29 1254.64 830.803 1235.42 845.194C1240.09 845.224 1247.52 844.528 1251.16 847.84C1252.56 849.122 1252.81 850.584 1252.95 852.432C1253.92 865.333 1249.67 880.091 1248.1 892.988C1246.51 906.017 1246.23 919.474 1243.64 932.341C1242.97 935.674 1242.18 939.391 1239.95 942.048C1246.02 941.929 1252.69 941.57 1258.6 943.115C1259.84 943.439 1260.64 943.412 1261.29 944.534C1260.47 945.241 1259.89 945.586 1258.86 945.954C1246.92 950.201 1220.83 947.559 1207.3 947.537L1148.4 947.628L916.127 947.764L109.319 948.627C104.966 948.596 99.7786 948.354 95.8049 946.425C95.1464 946.105 95.2556 945.846 95.0416 945.186C97.4892 943.066 101.52 942.562 104.663 942.248C114.81 941.233 125.344 942.262 135.537 942.395C152.562 942.618 169.602 942.506 186.629 942.504Q188.021 913.906 187.963 885.275C182.095 885.482 173.804 886.792 169.193 882.549C164.494 873.633 167.863 721.754 167.965 697.581C162.732 695.99 157.515 694.329 152.461 692.225C135.183 685.029 121.272 671.578 114.281 654.127C109.807 642.959 108.29 631.027 109.119 619.063C110.687 596.418 119.259 574.745 125.081 552.986C131.786 527.927 136.546 501.936 146.7 477.955C163.4 438.515 198.107 412.392 237.042 396.933C254.265 390.095 272.155 385.086 289.358 378.144L289.281 338.106C265.099 324.383 245.859 303.255 236.289 277.004C225.586 247.644 225.503 212.735 238.919 184.215C249.879 160.915 267.657 148.582 291.282 140.117C295.271 163.856 300.376 180.761 318.774 197.664C305.42 172.918 300.157 169.997 294.652 140.279Z"/>
	<path fill="#0CBDA9" transform="scale(0.947253 0.947266)" d="M307.662 651.942C309.363 652.356 311.316 652.909 312.615 654.146C315.201 656.611 314.705 660.672 314.728 663.94C313.523 663.582 312.167 663.048 311.147 662.298C308.016 659.995 307.992 655.446 307.662 651.942Z"/>
	<path fill="#FEFEFE" transform="scale(0.947253 0.947266)" d="M276.324 179.269C276.93 179.773 277.311 180.387 277.772 181.021C278.167 188.567 268.597 200.417 264.453 206.917C263.411 206.027 262.678 205.071 262.497 203.689C261.41 195.407 271.453 185.16 276.324 179.269Z"/>
	<path fill="#FEFEFE" transform="scale(0.947253 0.947266)" d="M532.862 846.925C546.207 845.614 560.729 847.444 573.916 849.389L562.451 850.583C550.478 850.798 535.183 853.479 523.88 849.301L523.832 848.542C526.602 847.217 529.846 847.193 532.862 846.925Z"/>
	<path fill="#FEFEFE" transform="scale(0.947253 0.947266)" d="M648.545 644.944C658.597 644.319 674.848 643.184 684.033 647.443L684.239 648.173C679.589 650.865 671.939 650.359 666.651 650.626C653.649 650.919 639.509 651.849 627.031 647.673C634.206 645.843 641.188 645.359 648.545 644.944Z"/>
	<path fill="#FEFEFE" transform="scale(0.947253 0.947266)" d="M337.044 171.811C354.299 175.933 360.797 188.584 384.378 190.801C391.397 191.46 418.027 186.997 421.209 189.015C422.083 189.569 421.948 189.87 422.213 190.803C407.956 195.23 393.598 195.842 378.895 193.365C363.067 190.697 346.722 185.397 337.044 171.811Z"/>
	<path fill="#FEFEFE" transform="scale(0.947253 0.947266)" d="M618.257 596.295C625.556 596.117 632.917 596.567 640.226 596.573C652.314 596.583 664.391 596.276 676.479 596.541C679.998 596.618 686.376 596.129 688.9 598.766L688.416 599.848C683.094 602.762 675.017 601.771 669.093 601.778C649.29 600.733 612.989 605.61 596.004 598.519C603.42 597.617 610.803 596.809 618.257 596.295Z"/>
	<path fill="#FEFEFE" transform="scale(0.947253 0.947266)" d="M357.376 789.712C357.62 789.883 357.873 790.042 358.107 790.225C360.151 791.826 361.004 794.999 361.345 797.441C362.65 806.801 358.536 817.954 352.854 825.28C346.456 833.528 337.005 834.366 327.358 835.572L327.422 905.545C327.428 918.017 327.716 930.618 327.008 943.065C319.477 934.905 323.713 850.515 324.02 832.685C332.555 832.015 341.832 831.725 348.516 825.608C357.773 817.137 356.903 801.152 357.376 789.712Z"/>
	<path fill="#FEFEFE" transform="scale(0.947253 0.947266)" d="M455.644 606.039C457.495 605.963 459.469 605.824 461.301 606.136C465.71 606.886 469.761 609.031 472.227 612.87C474.405 616.259 474.973 620.396 473.974 624.28C472.473 630.118 468.298 633.251 463.35 636.02C460.258 635.969 457.023 635.96 454.153 634.675C448.115 631.972 446.115 626.311 443.959 620.578C446.896 614.312 450.035 610.14 455.644 606.039Z"/>
	<path fill="#0CBDA9" transform="scale(0.947253 0.947266)" d="M796.479 873.821L841.849 873.976L841.851 890.752Q819.165 890.598 796.478 890.771L796.479 873.821Z"/>
	<path fill="#FEFEFE" transform="scale(0.947253 0.947266)" d="M922.96 413.226C923.08 413.777 923.165 414.359 923.106 414.925C922.436 421.397 892.532 479.034 888.294 482.206C887.306 482.946 887.384 482.71 886.286 482.515L885.28 480.516C883.384 473.824 881.726 467.054 879.991 460.319C890.251 440.546 904.429 425.447 922.96 413.226Z"/>
	<path fill="#FEFEFE" transform="scale(0.947253 0.947266)" d="M709.172 697.349L757.094 697.342L757.088 720.568L709.112 720.539L709.172 697.349Z"/>
	<path transform="scale(0.947253 0.947266)" d="M712.101 701.45C713.943 702.247 715.599 703.065 716.856 704.69C719.22 707.747 718.42 711.648 717.876 715.154C715.961 714.561 713.911 713.921 712.607 712.292C710.304 709.413 711.6 704.762 712.101 701.45Z"/>
	<path transform="scale(0.947253 0.947266)" d="M724.749 701.331C725.456 701.517 726.153 701.695 726.833 701.966C728.584 702.663 730.18 703.647 730.794 705.525C731.804 708.614 729.489 712.462 728.173 715.175C727.581 715.029 727.021 714.897 726.469 714.63C724.655 713.755 723.282 712.403 722.745 710.432C721.851 707.151 723.278 704.163 724.749 701.331Z"/>
	<path transform="scale(0.947253 0.947266)" d="M739.102 701.802C743.03 701.99 748.403 701.898 751.928 703.849C753.19 704.547 754.238 705.64 754.603 707.066C755.285 709.729 753.615 712.341 752.447 714.62C748.429 714.696 743.692 714.697 739.969 713.018C738.427 712.322 737.058 711.22 736.584 709.535C735.76 706.609 737.617 704.132 739.102 701.802Z"/>
	<path fill="#FEFEFE" transform="scale(0.947253 0.947266)" d="M962.789 401.663C962.95 401.767 963.128 401.848 963.273 401.974C969.305 407.238 976.097 484.48 977.44 497.893L971.828 488.783Q959.309 466.378 947.336 443.676C953.212 429.952 956.74 415.354 962.789 401.663Z"/>
	<path fill="#FEFEFE" transform="scale(0.947253 0.947266)" d="M619.5 557.626C638.721 556.942 657.934 557.52 677.152 558.034L677.14 578.035L668.837 578.044L609.837 578.036L609.885 558.065L619.5 557.626Z"/>
	<path fill="#FEFEFE" transform="scale(0.947253 0.947266)" d="M1060.72 396.991C1062.06 396.987 1062.81 397.267 1064.02 397.77C1066.13 400.078 1066.2 402.233 1066.32 405.216C1066.75 416.442 1067.41 428.753 1064.97 439.765C1060.46 460.063 1038.12 481.172 1024.21 496.136C1023.47 497.045 1023.13 497.373 1021.98 497.68C1019.08 489.354 1052.11 421.577 1057.04 409.2C1058.63 405.207 1059.74 401.165 1060.72 396.991Z"/>
	<path fill="#FEFEFE" transform="scale(0.947253 0.947266)" d="M754.289 567.39C756.769 567.346 759.263 567.295 761.742 567.381C766.938 567.561 774.802 568.782 778.515 572.683C778.923 573.807 779.305 574.34 779.051 575.562C777.119 584.85 761.391 580.14 755.29 584L755.245 584.878C755.484 585.047 755.718 585.225 755.963 585.387C761.848 589.254 772.046 585.263 778.323 584.221C782.075 583.598 786.621 583.068 789.858 585.413C790.284 586.384 790.566 586.815 790.317 587.905C789.888 589.79 788.403 591.737 787.181 593.223C777.873 604.545 764.145 593.103 756.757 598.214C755.867 598.83 756.084 599.136 755.935 600.13L756.908 601.446C764.724 605.743 779.17 601.232 788.063 601.057C788.406 603.431 788.656 605.724 787.944 608.063C783.891 621.375 764.63 610.279 757.275 614L757.214 614.962C762.147 621.77 772.767 616.799 779.458 619.347C781.263 620.034 781.759 620.679 782.628 622.33C782.38 624.312 781.78 625.981 780.251 627.362C777.788 629.586 773.64 630.264 770.449 629.907C764.593 629.253 759.683 625.678 756.035 621.226C748.04 611.471 743.702 596.404 745.086 583.887C745.881 576.692 748.615 571.862 754.289 567.39Z"/>
	<path fill="#FEFEFE" transform="scale(0.947253 0.947266)" d="M796.478 890.771Q819.165 890.598 841.851 890.752C842.238 898.072 842.61 905.469 842.148 912.794C841.609 921.353 839.927 930.727 833.11 936.631C821.44 946.739 799.626 943.451 785.48 942.384C797.494 926.779 797.255 909.498 796.478 890.771Z"/>
	<path fill="#FEFEFE" transform="scale(0.947253 0.947266)" d="M596.286 606.016L692.133 606.02C690.92 614.574 689.622 623.126 688.865 631.736C671.01 637.899 620.241 634.026 599.221 633.271C598.569 624.131 597.466 615.097 596.286 606.016Z"/>
	<path fill="#FEFEFE" transform="scale(0.947253 0.947266)" d="M718.521 820.573L791.886 820.598Q791.876 838.886 791.161 857.16C767.176 857.698 743.088 857.32 719.091 857.395C719.116 853.702 718.965 850.098 718.645 846.42L718.521 820.573Z"/>
	<path fill="#0CBDA9" transform="scale(0.947253 0.947266)" d="M806.274 502.269Q808.117 502.208 809.96 502.167C814.93 502.059 820.671 501.917 824.439 505.766C829.091 510.52 828.013 519.254 827.829 525.391C833.424 525.161 838.755 525.164 844.341 525.671C846.999 531.262 849.459 537.741 849.314 544.031C849.247 546.944 848.456 549.916 846.199 551.906C841.295 556.231 833.147 554.502 827.2 553.903C827.631 558.497 828.867 565.564 826.138 569.568C825.044 571.172 823.667 571.521 821.855 571.923C819.183 572.251 816.457 572.623 813.764 572.642C810.091 572.668 805.987 572.078 803.337 569.286C799.277 565.007 800.163 558.633 800.513 553.288C796.838 553.53 793.027 553.937 789.348 553.814C787.102 553.74 785.211 553.196 783.703 551.475C780.179 547.451 779.27 540.228 779.572 535.065C779.729 532.373 780.281 528.626 782.526 526.857C786.478 523.742 795.085 525.114 799.862 525.426C799.055 519.537 797.049 510.262 800.625 505.115C802.11 502.979 803.82 502.692 806.274 502.269Z"/>
	<path fill="#FEFEFE" transform="scale(0.947253 0.947266)" d="M391.393 394.603C395.497 396.339 399.326 398.705 403.185 400.92C412.747 418.363 418.648 436.451 423.764 455.581C417.942 460.051 401.866 468.323 399.787 474.89Q399.712 475.12 399.662 475.356Q399.612 475.592 399.588 475.832Q399.563 476.072 399.564 476.314Q399.565 476.555 399.592 476.795Q399.619 477.035 399.671 477.271Q399.722 477.507 399.799 477.736Q399.876 477.964 399.976 478.184Q400.077 478.403 400.2 478.611C403.55 484.251 415.083 486.348 421.05 487.928C418.982 496.22 416.473 504.427 414.124 512.644Q409.92 527.652 405.337 542.548Q398.656 543.076 391.969 543.523Q391.212 469.063 391.393 394.603Z"/>
	<path fill="#0CBDA9" transform="scale(0.947253 0.947266)" d="M523.522 865.626C534.471 866.074 545.44 865.714 556.376 866.157L571.219 866.539L571.821 931.091L519.976 931.224C518.25 913.599 516.76 893.896 519.004 876.293C519.538 872.106 519.999 868.364 523.522 865.626Z"/>
	<path fill="#FEFEFE" transform="scale(0.947253 0.947266)" d="M523.522 865.626C534.471 866.074 545.44 865.714 556.376 866.157C556.923 877.696 556.519 889.452 556.531 901.014L523.82 901.189L523.522 865.626Z"/>
	<path fill="#0CBDA9" transform="scale(0.947253 0.947266)" d="M604.247 673.982L683.883 674.016C681.361 688.059 680.178 702.316 678.83 716.509L677.861 718.277C669.387 724.279 622.031 720.957 609.984 720.595Q607.756 697.21 604.247 673.982Z"/>
	<path fill="#FEFEFE" transform="scale(0.947253 0.947266)" d="M1123.55 805.41C1127.19 805.621 1129.24 807.044 1131.64 809.691C1136.13 814.642 1138.23 821.103 1142.8 826.066C1147.17 830.81 1160.9 839.696 1162.48 844.2L1161.79 845.347C1154.31 847.053 1144.93 846.136 1137.21 846.117C1137.42 846.318 1137.64 846.51 1137.85 846.719C1144.41 853.454 1150.8 920.283 1150.93 933.433C1150.95 935.17 1151.13 941.155 1149.64 942.299C1145.21 945.707 1114.22 942.923 1106.48 942.451C1107.3 941.387 1107.94 940.376 1108.43 939.116C1114.8 922.755 1129.19 818.265 1123.55 805.41Z"/>
	<path fill="#FEFEFE" transform="scale(0.947253 0.947266)" d="M912.493 555.808C916.791 557.588 920.699 560.899 924.103 563.998C936.514 575.302 954.151 593.201 954.749 610.893C954.963 617.224 952.776 623.13 948.41 627.729C941.294 635.223 930.542 637.597 920.581 637.889C901.006 638.463 885.622 632.12 871.56 618.771C877.269 622.113 884.991 627.904 891.963 627.018L892.191 626.137C886.174 618.874 876.492 615.72 869.697 609.426C867.078 607.001 861.661 602.154 861.532 598.474C863.194 598.064 863.484 598.508 864.967 599.27C871.277 603.55 880.643 611.466 888.527 611.333C890.014 611.308 890.189 611.129 891.189 610.148C889.896 603.69 864.424 596.09 858.701 587.988C857.013 585.598 855.611 581.961 856.27 578.998C856.608 577.477 856.944 577.371 858.153 576.532C865.98 576.052 872.99 586.371 878.658 590.743C881.684 593.078 887.455 596.143 891.388 595.366C892.591 595.129 892.375 595.008 892.969 594.067C890.269 586.832 870.047 583.148 865.724 573.04C865.064 571.497 865.394 570.743 866 569.269C873.639 564.327 890.776 578.084 898.818 580.409C904.37 582.014 911.245 581.338 916.991 581.292C914.667 572.777 913.061 564.64 912.493 555.808Z"/>
	<path fill="#FEFEFE" transform="scale(0.947253 0.947266)" d="M369.676 588.298C377.246 588.118 386.308 588.052 393.319 591.139C395.938 592.292 397.93 593.586 398.972 596.331C398.826 597.24 398.889 597.908 398.284 598.639C393.342 604.609 375.125 601.867 368.006 602.173C365.655 602.274 362.026 602.24 360.351 604.055L360.456 604.92C367.124 612.369 385.774 603.228 394.136 608.924C395.556 609.892 396.573 611.201 396.732 612.963C396.827 614.019 396.473 615.055 395.856 615.882C390.878 622.55 372.714 618.071 365.517 619.327C363.581 619.665 362.433 620.231 361.408 621.847C364.641 625.597 378.125 624.203 383.25 624.933C386.325 625.37 390.382 626.03 392.353 628.615C391.618 640.199 366.58 632.044 360.976 637.462L360.972 638.95C367.524 642.463 374.384 640.501 380.99 642.866C383.083 643.616 383.974 644.436 384.836 646.401C384.616 647.546 384.306 648.2 383.476 649.003C373.536 658.632 335.632 649.347 323.018 647.798C317.419 647.111 311.792 647.234 306.164 647.341Q303.274 627.11 298.769 607.177C312.474 602.089 330.629 592.798 344.223 590.055C352.51 588.382 361.243 588.532 369.676 588.298Z"/>
	<path fill="#0CBDA9" transform="scale(0.947253 0.947266)" d="M718.645 846.42C718.965 850.098 719.116 853.702 719.091 857.395C743.088 857.32 767.176 857.698 791.161 857.16Q791.051 870.108 791.365 883.053C791.722 895.934 795.121 924.527 785.68 934.525C779.034 941.562 767.935 942.623 758.838 942.879C747.955 943.185 733.525 943.153 725.256 934.861C718.946 928.534 719.238 918.634 719.035 910.318C733.131 910.97 750.009 913.276 763.79 909.912C765.832 909.413 768.565 908.895 769.686 907.054C769.522 906.892 769.366 906.722 769.194 906.568C762.723 900.755 727.931 904.309 719.093 905.24C719.029 885.63 718.594 866.033 718.645 846.42Z"/>
	<path fill="#FEFEFE" transform="scale(0.947253 0.947266)" d="M412.684 407.074C415.525 407.964 418.259 409.603 420.776 411.168C466.546 439.65 481.361 493.445 493.064 542.684C480.544 542.642 467.998 543.059 455.479 543.301Q433.101 543.365 410.733 542.686Q418.547 514.281 426.932 486.04C419.996 481.762 412.068 478.818 404.568 475.664C412.676 471.455 422.624 466.454 426.248 457.497C431.831 443.7 418.267 419.882 412.684 407.074Z"/>
	<path transform="scale(0.947253 0.947266)" d="M448.196 510.36C449.384 511.01 450.433 511.65 451.223 512.783C453.93 516.663 452.502 522.181 451.646 526.461C450.175 525.776 449.124 525.055 448.251 523.646C445.903 519.856 447.361 514.429 448.196 510.36Z"/>
	<path fill="#FEFEFE" transform="scale(0.947253 0.947266)" d="M813.531 724.978C822.886 725.04 835.407 723.911 842.934 730.689C844.979 732.531 846.703 735.223 846.667 738.068C846.636 740.466 845.29 742.611 843.596 744.217C839.835 747.785 834.523 749.183 829.494 749.652C817.458 750.773 804.855 749.743 792.771 749.539Q767.128 749.312 741.485 749.423L563.133 749.985C554.034 749.84 538.827 751.251 531.771 744.707C530.183 743.235 529.054 741.247 529.01 739.043C528.918 734.454 532.841 729.432 535.742 726.147C549.076 724.769 562.81 725.346 576.205 725.585Q598.493 726.071 620.786 726.018Q717.165 726.753 813.531 724.978Z"/>
	<path fill="#FEFEFE" transform="scale(0.947253 0.947266)" d="M1147.63 850.999C1164.43 849.469 1181.87 850.766 1198.76 850.922C1213.59 851.06 1231.08 848.605 1245.39 852.44L1245.42 853.385L1246.09 852.987C1246.59 854.113 1246.75 855.24 1246.86 856.457C1247.85 867.503 1240.86 929.438 1235.21 936.105C1235.53 937.721 1235.7 939.016 1235.54 940.662C1229.89 945.439 1167.42 942.874 1155.09 942.63C1163.14 932.691 1143.91 870.475 1145.82 853.877C1146.03 852.096 1146.19 852.084 1147.63 850.999Z"/>
	<path fill="#0CBDA9" transform="scale(0.947253 0.947266)" d="M318.524 652.135C328.547 654.005 339.065 656.576 349.27 656.79C345.093 666.731 335.12 685.898 339.691 696.399C341.052 699.525 343.781 701.41 346.934 702.483C359.451 706.745 376.506 702.769 389.645 702.563L389.267 772.454Q336.258 771.574 283.248 772.357C283.12 750.302 286.958 698.511 281.376 680.174C299.21 678.496 306.991 675.545 320.318 663.471C319.746 659.715 319.335 655.843 318.524 652.135Z"/>
	<path fill="#FEFEFE" transform="scale(0.947253 0.947266)" d="M953.492 401.979C954.404 401.855 954.581 402.069 955.398 402.43C957.643 410.417 945.338 436.225 941.866 444.593C955.677 466.916 974.651 492.885 977.918 519.389C980.015 536.401 978.103 562.252 977.762 579.929L944.845 579.986C939.607 573.744 933.76 568.026 927.971 562.305C925.248 559.614 921.714 556.741 919.497 553.64C918.411 552.122 918.766 551.557 919.006 549.849C920.619 543.52 922.466 537.096 923.271 530.604C923.649 527.558 924.376 522.124 922.367 519.58L921.21 519.969C915.939 527.18 915.184 540.439 914.219 549.23C911.105 551.772 908.846 554.689 906.566 557.971C899.916 536.603 894.496 515.099 889.311 493.337L931.897 409.854L953.492 401.979Z"/>
	<path fill="#FEFEFE" transform="scale(0.947253 0.947266)" d="M668.526 754.641L713.147 754.628L713.309 864.823C713.307 883.081 710.696 908.225 714.829 925.49C716.493 932.44 720.824 937.258 725.346 942.538C714.024 943.732 702.56 943.364 691.192 943.322L644.009 943.108C634.646 943.255 625.266 943.49 615.902 943.435C607.26 943.384 597.139 943.839 590.771 936.984C588.392 934.423 586.749 930.937 586.924 927.386C588.04 904.819 649.506 923.548 663.218 909.946C666.967 906.228 667.72 901.102 668.333 896.102C670.375 879.437 668.654 862.381 668.544 845.645L668.526 754.641Z"/>
	<path fill="#FEFEFE" transform="scale(0.947253 0.947266)" d="M394.555 702.632C418.307 702.371 442.087 702.595 465.841 702.584Q466.744 791.396 465.936 880.21Q430.25 881.013 394.56 880.379Q393.83 791.506 394.555 702.632Z"/>
	<path fill="#FEFEFE" transform="scale(0.947253 0.947266)" d="M1011.77 649.339C1033.62 649.294 1072.07 654.156 1091.41 645.557C1110.39 637.116 1113.39 613.734 1119.71 596.28C1122.33 589.047 1126.01 582.229 1128.68 575.012C1130.19 570.938 1131.62 566.711 1129.74 562.547C1131.75 564.843 1132.65 566.541 1133.28 569.519C1137.5 589.559 1136.63 611.448 1137.96 631.906C1139.02 648.318 1141.59 664.595 1141.17 681.081C1141.08 684.511 1141.4 686.926 1138.84 689.365C1131.22 681.563 1123.39 674.855 1112.61 671.968C1118.18 680.581 1106.63 714.023 1106.67 725.917C1106.7 735.589 1111.16 756.155 1109.7 763.913C1109.48 765.11 1109.21 765.189 1108.17 765.775C1107.96 765.895 1107.72 765.974 1107.5 766.074C1105.92 764.724 1102.49 764.692 1100.43 764.595C1090.33 764.121 1080.17 765.049 1070.07 765.162C1050.84 765.378 1031.59 765.218 1012.35 765.195Q1011.64 707.267 1011.77 649.339Z"/>
	<path fill="#0CBDA9" transform="scale(0.947253 0.947266)" d="M370.865 387.307C375.882 389.412 380.849 391.504 386.039 393.158Q387.308 454.148 386.046 515.138C385.868 525.983 387.866 537.172 386.259 547.928C384.426 560.193 378.92 572.396 374.734 584.019C348.233 583.617 333.577 587.252 309.407 597.04C306.413 592.248 303.532 589.041 297.704 587.76C292.452 586.605 286.481 587.494 281.225 588.304C281.476 569.858 279.564 551.313 278.517 532.9C277.621 517.136 277.777 501.428 275.422 485.776C280.883 479.647 279.468 467.609 279.015 459.778C277.697 437.012 275.115 414.56 275.237 391.689L288.841 388.171C291.674 399.907 295.59 409.021 306.367 415.518C316.985 421.919 330.348 423.508 342.312 420.52C351.802 418.15 360.719 412.678 365.815 404.149C368.94 398.919 370.13 393.285 370.865 387.307Z"/>
	<path fill="#FEFEFE" transform="scale(0.947253 0.947266)" d="M329.065 206.276C360.33 222.123 384.527 230.41 419.949 223.746Q419.851 240.729 420.213 257.708C420.594 275.232 422.262 293.811 417.877 310.937C414.483 324.195 407.054 336.679 395.043 343.749C373.812 356.245 346.481 349.842 324.138 344.03C334.205 359.438 350.042 368.609 366.003 376.756C366.032 383.448 365.963 390.028 365.032 396.667C363.362 399.588 361.649 402.308 359.304 404.743C351.945 412.384 341.265 416.533 330.73 416.632C320.747 416.726 309.655 413.674 302.412 406.494C298.593 402.708 296.102 397.941 294.958 392.699C292.269 380.37 293.843 366.855 293.918 354.3L293.988 298.255C283.385 296.58 272.639 294.208 264.935 286.111C260.318 281.258 257.621 274.841 257.929 268.096C258.203 262.093 260.69 256.291 265.209 252.27Q265.546 251.966 265.899 251.679Q266.251 251.393 266.618 251.125Q266.984 250.857 267.364 250.609Q267.744 250.36 268.137 250.132Q268.529 249.903 268.933 249.695Q269.336 249.487 269.75 249.3Q270.164 249.113 270.587 248.948Q271.01 248.782 271.441 248.639Q271.871 248.496 272.309 248.375Q272.747 248.254 273.19 248.156Q273.633 248.058 274.081 247.983Q274.529 247.908 274.98 247.856Q275.431 247.804 275.884 247.775Q276.337 247.747 276.792 247.742Q277.246 247.737 277.699 247.755Q278.153 247.773 278.605 247.815C286.97 248.649 292.276 254.697 297.376 260.676C314.479 246.497 322.672 226.845 329.065 206.276Z"/>
	<path transform="scale(0.947253 0.947266)" d="M271.595 267.211C273.676 267.62 275.814 268.21 277.713 269.178C281.385 271.049 282.526 274.426 283.656 278.078C277.362 276.233 274.742 272.576 271.595 267.211Z"/>
	<path fill="#9B999A" transform="scale(0.947253 0.947266)" d="M319.641 286.132C322.349 286.743 324.535 287.483 326.241 289.768C327.063 292.286 326.587 294.128 326.093 296.642C323.331 295.993 321.006 295.391 319.267 293.021C318.472 290.605 319.129 288.539 319.641 286.132Z"/>
	<path transform="scale(0.947253 0.947266)" d="M401.615 237.302C403.759 237.624 406.227 237.849 408.205 238.765C410.313 239.742 412.467 241.616 413.338 243.794L412.708 244.901C410.353 245.291 408.561 244.314 406.431 243.436C403.816 244.063 400.819 245.021 398.125 244.93C396.175 244.865 394.716 244.554 393.364 243.186L393.898 241.683C395.968 239.533 398.933 238.498 401.615 237.302Z"/>
	<path transform="scale(0.947253 0.947266)" d="M339.719 237.276C342.863 237.942 347.488 238.699 349.316 241.663C350.083 242.907 349.921 243.099 349.547 244.411C349.298 244.546 349.054 244.691 348.8 244.816C346.052 246.17 342.169 244.143 339.517 243.19C337.65 244.423 335.242 246.216 333.048 246.635C331.541 246.923 331.308 246.822 330.063 245.982L330.197 244.252C332.59 240.066 335.474 239.088 339.719 237.276Z"/>
	<path transform="scale(0.947253 0.947266)" d="M378.456 268.271C379.181 268.684 379.93 269.124 380.544 269.695C383.816 272.736 383.786 278.859 384.177 283.04C385.518 283.937 386.883 284.85 388.042 285.982C390.204 288.094 390.336 290.074 390.33 292.98C386.685 291.47 383.263 289.469 380.9 286.218C376.871 280.675 377.473 274.611 378.456 268.271Z"/>
	<path transform="scale(0.947253 0.947266)" d="M337.399 258.551C340.336 258.821 343.437 259.112 345.933 260.848C347.598 262.006 348.838 263.847 349.045 265.89C349.481 270.186 346.798 273.301 344.197 276.323C341.599 276.629 338.676 276.917 336.349 275.434C334.847 274.477 333.954 272.924 333.599 271.207C332.57 266.221 334.749 262.491 337.399 258.551Z"/>
	<path transform="scale(0.947253 0.947266)" d="M403.049 257.947C405.663 258.516 408.483 259.336 410.581 261.069C412.264 262.46 413.354 264.318 413.479 266.523C413.732 270.983 410.726 273.999 407.859 276.933C404.739 276.601 401.623 276.262 399.199 274.023C397.658 272.601 396.889 270.727 396.944 268.634C397.064 264.021 400.02 261.009 403.049 257.947Z"/>
	<path transform="scale(0.947253 0.947266)" d="M356.52 297.492C362.682 299.757 364.286 306.829 369.083 310.776C377.996 318.108 384.842 302.461 392.952 302.109C394.811 302.028 395.508 302.971 396.747 304.123C391.563 309.523 385.777 314.177 378.239 315.637C373.435 316.568 368.241 315.98 364.173 313.096C358.766 309.264 357.506 303.595 356.52 297.492Z"/>
	<path fill="#FEFEFE" transform="scale(0.947253 0.947266)" d="M281.376 680.174C286.958 698.511 283.12 750.302 283.248 772.357L283.171 880.335C246.834 881.389 210.291 880.78 173.947 880.065L173.942 697.85C210.105 693.933 245.73 687.332 281.376 680.174Z"/>
	<path fill="#FEFEFE" transform="scale(0.947253 0.947266)" d="M941.512 200.438C956.448 205.537 971.39 209.686 987.146 211.226Q994.65 211.975 1002.19 211.863C1009.56 211.704 1020.51 208.854 1027.32 211.593C1036.41 219.566 1034.76 238.83 1042.14 249.152C1046.78 255.637 1058.27 259.33 1060.95 266.408C1065.39 265.217 1073.05 262.131 1075.48 258.035C1081.14 259.476 1086.31 261.326 1090.32 265.798C1093.47 269.32 1095.15 273.937 1094.74 278.67Q1094.67 279.477 1094.52 280.274Q1094.37 281.07 1094.14 281.848Q1093.92 282.626 1093.62 283.378Q1093.31 284.13 1092.94 284.849Q1092.57 285.568 1092.12 286.246Q1091.68 286.925 1091.17 287.557Q1090.66 288.188 1090.1 288.767Q1089.53 289.346 1088.91 289.867C1082.79 295.101 1075.81 294.722 1068.27 294.046C1068.63 295.729 1068.61 297.95 1068.42 299.656C1066.94 312.936 1051.64 328.003 1041.4 335.855C1042.99 337.74 1044.08 339.706 1044.75 342.085C1047.81 353.031 1048.6 382.85 1042.99 392.901C1045.36 393.101 1048.13 393.19 1050.37 393.955C1052.23 394.586 1054.19 396.055 1054.87 397.957C1055.5 399.705 1055.03 401.762 1054.27 403.386C1051.26 409.838 1044.29 413.71 1037.89 415.993C1033.39 422.593 1015.92 428.889 1008.33 431.894C995.742 425.382 983.544 418.199 971.328 411.017L969.476 397.176C975.167 395.479 980.795 393.46 986.426 391.568L986.426 373.331C996.412 368.821 1011.63 362.406 1017.96 353.269C1019.01 351.742 1019.1 351.087 1018.8 349.319C1015.67 347.215 991.364 350.243 985.544 349.773Q982.679 349.542 979.849 349.037Q977.019 348.533 974.25 347.761Q971.481 346.988 968.799 345.954Q966.116 344.921 963.545 343.635C947.863 335.771 937.673 321.274 932.264 304.895C923.973 279.785 923.995 248.023 931.836 222.806C934.277 214.957 937.795 207.747 941.512 200.438Z"/>
	<path transform="scale(0.947253 0.947266)" d="M1073.85 274.988C1076 274.377 1077.36 274.434 1079.28 275.507C1079.58 277.016 1079.56 277.265 1078.77 278.606C1077.5 280.746 1075.46 281.445 1073.19 282.08L1071.02 283.207L1070.22 282.783C1070.76 280.032 1073.17 278.397 1073.71 275.795C1073.76 275.528 1073.8 275.257 1073.85 274.988Z"/>
	<path transform="scale(0.947253 0.947266)" d="M943.148 240.206C945.594 240.366 948.237 240.416 950.508 241.425C952.359 242.247 954.314 243.376 955.094 245.243L954.191 246.113C951.647 246.753 949.435 246.09 946.952 245.52C944.434 245.932 941.549 246.593 939.018 246.433C937.231 246.32 935.755 245.876 934.518 244.577L935.042 243.259C937.475 241.505 940.292 240.947 943.148 240.206Z"/>
	<path transform="scale(0.947253 0.947266)" d="M1005.28 240.836C1006.61 240.619 1007.9 240.497 1009.24 240.499C1012.68 240.502 1017.25 241.888 1019.62 244.6C1020.42 245.521 1020.2 245.525 1020.16 246.641C1018.26 247.427 1017.54 247.083 1015.55 246.727C1012.59 245.274 1010.47 245.988 1007.4 246.122C1004.75 246.238 1000.6 246.72 998.563 244.882C999.706 242.746 1003.13 241.751 1005.28 240.836Z"/>
	<path transform="scale(0.947253 0.947266)" d="M965.212 275.626C965.885 276.014 966.448 276.487 966.963 277.068C969.103 279.48 968.018 282.143 967.99 285.012C967.899 294.395 979.185 289.512 983.272 294.444C983.961 295.275 983.695 295.626 983.636 296.642C980.251 296.786 976.628 296.997 973.299 296.262C969.89 295.509 966.425 293.953 964.623 290.803C961.83 285.92 963.685 280.552 965.212 275.626Z"/>
	<path transform="scale(0.947253 0.947266)" d="M1003.22 259.224C1006.07 259.395 1009.5 260.067 1011.74 261.962C1013.12 263.133 1013.92 264.576 1014.05 266.389C1014.35 270.294 1012.01 272.883 1009.7 275.692C1006.92 275.646 1003.74 275.346 1001.42 273.677C999.999 272.658 999.109 271.178 998.905 269.437C998.434 265.416 1000.98 262.247 1003.22 259.224Z"/>
	<path transform="scale(0.947253 0.947266)" d="M943.308 259.25C945.976 259.388 949.27 260.016 951.43 261.675C952.936 262.832 953.868 264.392 954.077 266.29C954.52 270.301 951.962 273.341 949.625 276.253C946.805 276.128 943.429 275.283 941.233 273.439C939.794 272.23 938.98 270.578 938.849 268.705C938.573 264.781 940.995 262.075 943.308 259.25Z"/>
	<path fill="#B2C5C8" transform="scale(0.947253 0.947266)" d="M1022.17 286.481C1022.47 286.521 1022.78 286.548 1023.08 286.603C1026.11 287.152 1029.73 288.118 1031.41 290.944C1032.37 292.565 1032.48 294.359 1032 296.158C1030.92 300.24 1027.42 302.331 1023.98 304.233C1023.75 304.299 1023.52 304.371 1023.28 304.431C1021.04 305.002 1018.09 305.102 1016.09 303.91C1014.92 302.497 1014.41 301.418 1014.54 299.535C1014.94 293.867 1017.94 289.897 1022.17 286.481Z"/>
	<path transform="scale(0.947253 0.947266)" d="M990.476 296.948C991.237 297.513 992.066 298.105 992.69 298.823C993.653 299.933 993.835 301.727 993.745 303.13C993.48 307.227 990.282 310.937 987.213 313.426C983.114 316.751 977.92 318.765 972.589 318.03C965.655 317.074 961.811 312.384 957.989 307.099C957.907 306.919 957.813 306.744 957.743 306.558C957.086 304.791 956.803 302.829 957.548 301.067C961.27 300.615 967.573 310.904 971.763 313.032C974.045 314.191 976.601 314.507 979.017 313.559C985.434 311.042 988.204 302.829 990.476 296.948Z"/>
	<path fill="#0CBDA9" transform="scale(0.947253 0.947266)" d="M1227.58 621.111C1236.99 626.523 1240.15 641.106 1242.8 650.924C1245.66 661.508 1255.95 699.312 1250.51 708.826C1249.95 709.805 1249 710.683 1248.12 711.384L1250.35 712.451L1250.64 713.456C1249.79 714.077 1248.95 714.719 1248.04 715.248C1250.08 717.298 1250.84 719.204 1250.85 722.123C1250.86 725.119 1249.75 729.425 1247.78 731.663C1258.77 727.371 1297.58 707.066 1307.09 711.781C1308.33 712.396 1308.94 713.37 1309.35 714.666C1313.74 728.561 1291.25 780.302 1283.09 793.711C1270.56 814.29 1254.64 830.803 1235.42 845.194C1224.17 846.786 1212.82 846.006 1201.51 845.64C1208.17 840.851 1216.69 815.736 1221.81 806.952C1229.34 794.034 1238.83 781.108 1249.62 770.75C1255.48 765.132 1261.95 760.122 1267.69 754.392C1270.63 751.457 1276.28 745.901 1276.3 741.525L1275.48 740.882C1261.7 741.962 1221.62 796.346 1214.45 809.202C1208.57 819.755 1205.18 835.859 1197.03 844.617C1196.54 845.139 1196.3 844.969 1195.62 844.991C1190.37 834.502 1208.5 809.668 1202.72 796.797C1196.53 797.517 1195.32 836.198 1184.5 844.909C1184.31 845.061 1184.12 845.208 1183.93 845.358C1184.17 844.898 1184.41 844.439 1184.63 843.97C1190.64 831.246 1172.66 784.089 1167.72 771.068C1162.1 756.262 1150.74 726.322 1138.7 715.893C1136.91 714.343 1134.76 713.408 1132.62 712.444C1137.49 716.859 1138.91 724.682 1141.73 730.472C1145.39 738.001 1150.05 745.077 1153.8 752.588C1164.78 774.565 1174.42 799.935 1179.35 824.044C1180.59 830.111 1182.66 838.464 1179.01 843.989C1174.66 847.049 1166.8 846.16 1161.79 845.347L1162.48 844.2C1160.9 839.696 1147.17 830.81 1142.8 826.066C1138.23 821.103 1136.13 814.642 1131.64 809.691C1129.24 807.044 1127.19 805.621 1123.55 805.41C1123.88 804.518 1124.18 803.707 1124.11 802.741C1123.62 796.223 1112.38 769.972 1107.5 766.074C1107.72 765.974 1107.96 765.895 1108.17 765.775C1109.21 765.189 1109.48 765.11 1109.7 763.913C1111.16 756.155 1106.7 735.589 1106.67 725.917C1106.63 714.023 1118.18 680.581 1112.61 671.968C1123.39 674.855 1131.22 681.563 1138.84 689.365C1140.28 691.018 1141.32 692.243 1143.35 693.137L1144.05 692.672C1147.99 696.366 1161.94 707.223 1162.36 712.216C1162.38 712.42 1162.34 712.624 1162.32 712.828C1170.46 706.808 1171.45 693.027 1175.71 684.33Q1178.92 677.823 1182.69 671.625Q1186.46 665.427 1190.76 659.586C1194.51 654.464 1198.52 649.375 1203.12 645.003C1208.5 639.899 1226.35 628.59 1227.53 621.686C1227.57 621.496 1227.57 621.303 1227.58 621.111Z"/>
	<path transform="scale(0.947253 0.947266)" d="M1193.04 753.503C1197.23 743.102 1197.71 731.599 1199.85 720.675C1202.38 707.82 1213.15 664.658 1221.75 656.427C1222.77 655.455 1223.02 655.446 1224.34 655.469C1225.07 656.572 1225.24 657.318 1225.23 658.659C1225.16 669.2 1217.3 678.723 1214.17 688.547C1210.29 700.737 1205.62 737.429 1197.61 744.963C1197.47 745.093 1197.33 745.215 1197.18 745.342C1204.14 742.96 1209.51 736.607 1214.73 731.653C1223.13 723.677 1235.82 711.05 1248.12 711.384L1250.35 712.451L1250.64 713.456C1249.79 714.077 1248.95 714.719 1248.04 715.248C1239.91 724.913 1224.83 727.799 1215.52 736.553C1209.49 742.227 1206.8 750.541 1201.77 757.031C1200.58 758.574 1199.2 760.152 1197.16 760.388C1196.51 759.91 1196.21 759.604 1195.99 758.81C1195.43 756.804 1194.79 755.669 1193.5 754.061C1193.35 753.873 1193.2 753.689 1193.04 753.503Z"/>
	<path fill="#FEFEFE" transform="scale(0.947253 0.947266)" d="M1069.89 398.332C1072.58 398.34 1075.27 398.372 1077.94 398.698C1100.52 401.452 1124.92 416.054 1138.86 433.906C1151.29 449.825 1153.82 468.18 1151.25 487.771C1147.3 517.836 1133.47 546.022 1123.07 574.209C1117.89 588.262 1105.7 632.012 1093.5 640.404C1089.05 643.462 1080.19 643.86 1074.84 644.255C1057.83 645.512 1040.58 644.633 1023.52 644.651C1003.01 644.673 982.294 645.454 961.814 644.461C953.245 644.046 944.821 642.962 936.358 641.595C944.882 637.052 953.706 632.4 957.56 622.942C962.609 610.552 955.834 596.785 951.047 585.438L960.671 585.319L1023.08 585.386C1033.96 585.472 1044.94 586.329 1055.8 585.849C1059.48 585.687 1063.83 585.5 1067.3 584.109C1068.48 583.635 1068.71 583.525 1069.17 582.41C1069.03 582.249 1068.91 582.067 1068.74 581.926C1064.83 578.544 1054.02 579.534 1049.04 579.587C1052.76 576.64 1054.52 572.041 1056.15 567.702C1060.88 555.1 1063.33 541.51 1066.89 528.536C1069.39 519.401 1072.97 510.424 1074.66 501.088C1075.11 498.594 1075.55 495.911 1074.48 493.53C1073.24 493.331 1073.18 493.396 1072.26 494.394C1061.16 506.503 1057.72 570.289 1043.46 579.645C1043.32 579.742 1043.16 579.832 1043.02 579.926C1032.78 580.304 1022.51 580.048 1012.27 579.979L1011.83 519.859C1026.83 500.973 1043.31 483.203 1058.05 464.133C1074.5 442.836 1073.15 423.426 1069.89 398.332Z"/>
	<path fill="#FEFEFE" transform="scale(0.947253 0.947266)" d="M258.671 394.396L269.996 391.781C269.816 405.362 271.2 419.033 271.709 432.607C272.387 450.651 271.756 467.949 275.422 485.776C277.777 501.428 277.621 517.136 278.517 532.9C279.564 551.313 281.476 569.858 281.225 588.304C257.869 594.127 233.354 596.871 209.544 600.374C211.804 585.894 225.483 541.268 223.421 530.073C223.216 528.964 223.19 529.007 222.271 528.409C214.411 535.157 205.939 588.394 203.623 601.225C195.939 601.345 177.483 602.327 172.074 607.311C171.144 608.168 171.379 608.089 171.347 609.217C171.568 609.377 171.783 609.548 172.011 609.699C174.255 611.183 178.34 610.79 180.941 610.553C194.225 609.344 207.411 606.15 220.552 603.89L290.908 592.263C298.015 617.993 301.761 644.651 305.599 671.03Q273.893 676.353 242.328 682.463C222.058 686.462 201.339 691.954 180.575 692.05C171.042 692.094 161.859 690.748 153.093 686.878Q151.627 686.233 150.194 685.516Q148.762 684.8 147.366 684.013Q145.971 683.226 144.616 682.372Q143.261 681.517 141.95 680.596Q140.639 679.676 139.376 678.691Q138.112 677.707 136.898 676.661Q135.685 675.616 134.524 674.511Q133.364 673.407 132.26 672.246Q131.155 671.086 130.11 669.872Q129.064 668.658 128.08 667.394Q127.095 666.131 126.175 664.82Q125.254 663.508 124.399 662.153Q123.544 660.798 122.758 659.403Q121.971 658.007 121.254 656.574Q120.538 655.142 119.893 653.675Q119.248 652.209 118.676 650.712Q117.995 648.925 117.415 647.102Q116.834 645.28 116.356 643.428Q115.878 641.576 115.504 639.7Q115.129 637.825 114.86 635.931Q114.591 634.037 114.427 632.132Q114.264 630.226 114.206 628.314Q114.149 626.402 114.198 624.49Q114.247 622.578 114.403 620.672C116.135 596.799 125.042 573.903 131.193 550.952C137.792 526.328 142.328 500.749 152.762 477.35C171.023 436.397 210.706 413.131 250.937 397.675C242.746 417.492 239.111 437.356 235.62 458.396C243.825 465.033 252.758 470.838 261.515 476.716Q251.455 480.309 241.446 484.044C247.451 504.895 253.037 532.365 266.152 549.705C265.959 528.391 255.469 506.221 248.104 486.58C255.676 484.361 262.594 481.657 269.608 478.076C261.144 468.97 251.346 462.608 241.002 455.882C244.292 434.229 249.907 414.47 258.671 394.396Z"/>
</svg>
