<?xml version="1.0" encoding="utf-8" ?>
<svg xmlns="http://www.w3.org/2000/svg" xmlns:xlink="http://www.w3.org/1999/xlink" width="1497" height="1129">
	<path fill="#FCFCFC" transform="scale(0.365479 0.365727)" d="M0 0L4096 0L4096 3087L0 3087L0 0Z"/>
	<path fill="#D5DAE3" transform="scale(0.365479 0.365727)" d="M3329.29 548.312C3336.57 565.636 3343.97 582.949 3346.82 601.074C3352.69 638.472 3349.06 678.429 3348.95 716.117L3348.27 927.457C3348.18 950.37 3344.54 997.711 3349.39 1017.86C3344.8 1016.08 3340.32 1013.84 3335.87 1011.85C3334.56 1011.01 3332.39 1008.82 3331.72 1007.64C3328.79 1002.46 3331.05 954.599 3331.06 944.537L3331.46 684.693C3331.51 642.221 3335.83 589.509 3329.29 548.312Z"/>
	<path fill="#2C4169" transform="scale(0.365479 0.365727)" d="M756.004 2385.45L758.087 2385.44Q758.704 2416.54 758.47 2447.64L758.422 2855.35L1140.25 2855.23C1201.22 2855.34 1263.73 2853.27 1324.54 2855.88L1324.22 2774.38C1324.21 2760.21 1322.65 2744.42 1325.57 2730.49C1327.12 2772.06 1325.97 2813.83 1325.83 2855.42L2916.61 2854.98L3406.94 2856.47L3639.49 2856.29C3679.14 2856.29 3719.29 2855.13 3758.85 2856.43C3761.85 2858.31 3763.64 2859.83 3765.46 2862.48C3768.28 2866.6 3768.57 2873.52 3766.67 2877.86C3764.84 2882.03 3761.34 2884.74 3755.91 2886.27C3739.05 2891.03 3654.73 2887.19 3630.78 2887.27L3094.09 2887.18L1868.95 2886.67L829.989 2886.63L522.737 2886.04C464.739 2886.05 406.372 2887.49 348.435 2886.21C342.988 2886.08 334.601 2886.28 329.817 2884.24C324.829 2882.11 322.071 2877.65 321.819 2873.51C321.294 2864.92 326.721 2859.65 334.423 2853.96C355.029 2858.01 418.25 2854.82 444.067 2854.8Q600.076 2855.47 756.078 2854.35L756.004 2385.45Z"/>
	<defs>
		<linearGradient id="gradient_0" gradientUnits="userSpaceOnUse" x1="710.82458" y1="2570.1223" x2="1369.3649" y2="2730.6956">
			<stop offset="0" stop-color="#052D34"/>
			<stop offset="1" stop-color="#0F5657"/>
		</linearGradient>
	</defs>
	<path fill="url(#gradient_0)" transform="scale(0.365479 0.365727)" d="M758.47 2447.64C782.945 2450.26 810.831 2448.1 835.772 2448.02L996.311 2447.73L1217.95 2447.59C1253.59 2447.61 1290.76 2449.46 1326.13 2447.49C1325.79 2541.78 1327.24 2636.21 1325.57 2730.49C1322.65 2744.42 1324.21 2760.21 1324.22 2774.38L1324.54 2855.88C1263.73 2853.27 1201.22 2855.34 1140.25 2855.23L758.422 2855.35L758.47 2447.64Z"/>
	<defs>
		<linearGradient id="gradient_1" gradientUnits="userSpaceOnUse" x1="194.34128" y1="1180.9485" x2="3779.1733" y2="2413.7253">
			<stop offset="0" stop-color="#BFCDDA"/>
			<stop offset="1" stop-color="#EAE8EC"/>
		</linearGradient>
	</defs>
	<path fill="url(#gradient_1)" transform="scale(0.365479 0.365727)" d="M706.45 2853.09C690.045 2845.59 675.131 2835.73 660.139 2826.73Q643.271 2816.42 626.899 2805.66Q610.526 2794.9 594.67 2783.71Q578.814 2772.53 563.494 2760.92Q548.174 2749.32 533.409 2737.31Q518.644 2725.3 504.453 2712.91Q490.262 2700.52 476.663 2687.75Q463.063 2674.99 450.073 2661.87Q437.082 2648.75 424.717 2635.29C213.023 2406.85 116.864 2036.59 218.034 1766.73C230.514 1733.44 244.577 1699.98 260.903 1667.65C279.277 1631.26 300.232 1595.59 317.703 1558.94Q327.456 1539 335.928 1518.74Q344.4 1498.47 351.572 1477.92Q358.744 1457.37 364.598 1436.59Q370.453 1415.8 374.977 1394.83Q379.939 1371.84 383.564 1348.7Q387.19 1325.56 389.471 1302.33Q391.753 1279.1 392.686 1255.81Q393.619 1232.52 393.202 1209.23C392.15 1157.67 386.208 1106.21 387.377 1054.62Q388.006 1034.08 389.717 1013.58Q391.427 993.079 394.217 972.645Q397.006 952.21 400.87 931.875Q404.735 911.54 409.667 891.337C418.396 854.739 431.156 819.266 445.293 783.659C520.659 593.839 664.849 425.916 882.314 312.122C1091.64 202.587 1326.77 151.194 1580.48 185.791C1878.95 226.494 2132.68 378.843 2302.8 563.242C2306.79 561.266 2307.17 556.185 2308.41 552.718C2318.81 525.225 2329.05 499.959 2353.74 477.546C2377.67 455.826 2407.87 442.976 2445.25 440.18L2445.39 376.648C2624.74 374.292 2804.66 376.326 2984.07 376.509L3123.78 376.434C3146.59 376.424 3173.41 374.453 3195.67 377.901Q3195.58 414.293 3196 450.681C3231.98 452.626 3260.08 459.335 3284.45 480.649C3306.67 500.096 3320 523.877 3329.29 548.312C3335.83 589.509 3331.51 642.221 3331.46 684.693L3331.06 944.537C3331.05 954.599 3328.79 1002.46 3331.72 1007.64C3332.39 1008.82 3334.56 1011.01 3335.87 1011.85C3340.32 1013.84 3344.8 1016.08 3349.39 1017.86L3357.38 1022.99C3400.1 1043.62 3440.16 1072.48 3476.61 1098.95C3680.02 1246.61 3817.91 1445.14 3878.17 1652.42C3971.46 1973.26 3905.53 2299.13 3668.55 2576.69C3601.43 2655.3 3518.49 2729.1 3428.5 2793.38C3399.65 2813.99 3368.91 2833.26 3338.82 2852.84L3633.1 2852.56C3664.43 2852.54 3729.96 2849.44 3756.72 2854L3758.85 2856.43C3719.29 2855.13 3679.14 2856.29 3639.49 2856.29L3406.94 2856.47L2916.61 2854.98L1325.83 2855.42C1325.97 2813.83 1327.12 2772.06 1325.57 2730.49C1327.24 2636.21 1325.79 2541.78 1326.13 2447.49C1290.76 2449.46 1253.59 2447.61 1217.95 2447.59L996.311 2447.73L835.772 2448.02C810.831 2448.1 782.945 2450.26 758.47 2447.64Q758.704 2416.54 758.087 2385.44L756.004 2385.45L756.078 2854.35Q600.076 2855.47 444.067 2854.8C418.25 2854.82 355.029 2858.01 334.423 2853.96C350.271 2849.54 657.885 2852.78 706.45 2853.09Z"/>
	<path fill="#2A8A8C" transform="scale(0.365479 0.365727)" d="M3205.42 1944.43L3206.69 1938.78C3213 1951.08 3225.89 1981.87 3225.26 1994.34C3216.85 1994.37 3208.37 1994.22 3199.98 1994.67C3176.81 1994.91 3153.61 1996.38 3130.49 1995.07C3128.6 1993.72 3126.74 1992.39 3125.03 1990.91C3117.38 1984.29 3114.15 1975.37 3115.38 1966.68C3116.47 1958.92 3121.67 1952.35 3130.1 1947.83C3152.73 1935.7 3180.84 1947.41 3204.66 1950.7L3206.86 1949.24L3205.42 1944.43Z"/>
	<path fill="#1D7879" transform="scale(0.365479 0.365727)" d="M3166.47 1857.17L3171.54 1859.4C3179.63 1843.09 3180.73 1804.19 3205.73 1796.44C3212.6 1794.31 3219.88 1796.01 3226.13 1798.44C3236.69 1802.55 3242.49 1810.99 3245.69 1819.29C3251.89 1835.37 3248.29 1853.75 3236.91 1868.06C3225.52 1882.37 3210.24 1888.49 3190.4 1894.2Q3200.65 1916.3 3210.54 1938.49C3217.51 1922.35 3228.97 1902.32 3249.99 1894.09C3253.93 1892.55 3257.48 1891.78 3261.86 1892.63C3262.57 1892.77 3263.25 1893.01 3263.95 1893.2C3268.6 1921.02 3274.58 1963.99 3250.3 1987.89C3248.25 1989.9 3245.97 1991.76 3243.67 1993.61C3229.31 1995.92 3214.56 1995.43 3199.98 1994.67C3208.37 1994.22 3216.85 1994.37 3225.26 1994.34C3225.89 1981.87 3213 1951.08 3206.69 1938.78L3205.42 1944.43C3198.05 1927.25 3189.93 1910.23 3182.35 1893.1C3178.32 1881.26 3170.11 1869.21 3164.15 1857.75L3166.47 1857.17Z"/>
	<path fill="#2A8A8C" transform="scale(0.365479 0.365727)" d="M3568.48 1836.12C3567.31 1816.14 3568.17 1796.94 3587.39 1781.23C3594.95 1775.05 3604.26 1771.73 3615.48 1771.87C3625.11 1771.98 3633.82 1774.85 3640.21 1780.31C3650.89 1789.43 3654.37 1803.6 3652.48 1815.39C3650.64 1826.89 3643.47 1838.61 3631.05 1845.74C3622.1 1850.87 3611.72 1852.64 3600.67 1851.3C3589.79 1849.98 3578.61 1846.1 3568.5 1842.88C3559.34 1849.52 3550.27 1856.29 3540.89 1862.77C3558.9 1863.27 3571.58 1864.22 3584.73 1874.71C3592.35 1880.78 3597.64 1889.69 3597.14 1898.15C3596.59 1907.44 3589.79 1915.2 3580.61 1921.11C3573.81 1925.49 3566.42 1927.59 3557.44 1927.05C3538.39 1925.91 3520.33 1915.07 3506.1 1906.17C3503.95 1904.82 3498.68 1900.67 3496.44 1900.01C3493.68 1899.19 3492.28 1900.41 3490.28 1901.4L3489.4 1898.83C3493.52 1888.01 3535.43 1861.88 3547.34 1850.64C3553.83 1845.36 3561.93 1841.39 3568.48 1836.12Z"/>
	<path fill="#2A8A8C" transform="scale(0.365479 0.365727)" d="M3089.06 1807.61C3081.97 1802.95 3076.52 1798.28 3072.73 1791.71C3064.74 1777.88 3065.58 1759.13 3073.65 1745.4C3077.94 1738.09 3085.49 1732.07 3095.73 1729.58Q3096.57 1729.38 3097.43 1729.21Q3098.28 1729.04 3099.15 1728.91Q3100.01 1728.77 3100.89 1728.67Q3101.76 1728.56 3102.64 1728.49Q3103.52 1728.42 3104.4 1728.39Q3105.28 1728.35 3106.17 1728.34Q3107.05 1728.34 3107.94 1728.37Q3108.82 1728.4 3109.7 1728.46Q3110.58 1728.52 3111.46 1728.62Q3112.33 1728.71 3113.2 1728.84Q3114.07 1728.97 3114.92 1729.13Q3115.78 1729.29 3116.63 1729.48Q3117.47 1729.68 3118.31 1729.9Q3119.14 1730.12 3119.96 1730.38Q3120.77 1730.63 3121.57 1730.92Q3122.37 1731.2 3123.15 1731.52C3136.68 1736.94 3144.79 1747.98 3148.33 1758.86C3153.61 1775.09 3149.63 1790.52 3138.56 1804.75C3147.65 1819.86 3164.41 1841.09 3166.47 1857.17L3164.15 1857.75C3170.11 1869.21 3178.32 1881.26 3182.35 1893.1C3161.2 1900.74 3132.23 1910.89 3108.63 1906.13C3097.19 1903.82 3087.6 1898.12 3082.3 1890.08Q3081.81 1889.33 3081.37 1888.57Q3080.93 1887.81 3080.55 1887.03Q3080.17 1886.25 3079.84 1885.45Q3079.51 1884.66 3079.23 1883.85Q3078.96 1883.05 3078.74 1882.23Q3078.52 1881.41 3078.36 1880.59Q3078.2 1879.77 3078.1 1878.94Q3078 1878.11 3077.95 1877.28Q3077.91 1876.45 3077.92 1875.61Q3077.93 1874.78 3078 1873.95Q3078.07 1873.12 3078.2 1872.29Q3078.33 1871.47 3078.51 1870.65Q3078.7 1869.83 3078.94 1869.02Q3079.18 1868.2 3079.48 1867.4Q3079.78 1866.6 3080.13 1865.81Q3080.48 1865.02 3080.89 1864.25Q3081.26 1863.56 3081.68 1862.9Q3082.1 1862.23 3082.56 1861.57Q3083.03 1860.92 3083.54 1860.29Q3084.05 1859.66 3084.6 1859.05Q3085.16 1858.44 3085.75 1857.85Q3086.35 1857.26 3086.99 1856.7Q3087.62 1856.13 3088.3 1855.6Q3088.97 1855.06 3089.68 1854.55Q3090.4 1854.04 3091.14 1853.56Q3091.89 1853.08 3092.67 1852.63Q3093.45 1852.18 3094.26 1851.76Q3095.07 1851.34 3095.91 1850.96Q3096.74 1850.57 3097.61 1850.22Q3098.47 1849.87 3099.36 1849.55Q3100.25 1849.24 3101.15 1848.95Q3102.06 1848.67 3102.99 1848.43C3123.73 1843.07 3143.54 1850.45 3161.77 1857.26L3132.31 1806.89C3115.75 1812.32 3105.89 1810.99 3089.06 1807.61Z"/>
	<path fill="#FCFCFC" transform="scale(0.365479 0.365727)" d="M712.964 1714.51C720.917 1714.21 728.327 1714.11 735.274 1717.5C745.547 1722.52 751.471 1732.62 753.622 1741.38C756.812 1754.38 759.047 1772.99 748.857 1784.23C737.693 1790.27 654.751 1786.98 635.5 1786.95C622.089 1787.68 608.931 1787.54 595.501 1787.25C594.169 1771.32 587.835 1738 600.652 1724.11C615.791 1707.7 684.322 1719.25 711.343 1714.8C711.886 1714.71 712.424 1714.61 712.964 1714.51Z"/>
	<path fill="#95BEC0" transform="scale(0.365479 0.365727)" d="M1003.09 789.835L1005.43 787.721C1008.84 788.052 1007.71 787.437 1009.5 789.211C1019.16 798.774 1025.43 813.533 1026.45 825.602C1029.27 859.04 1026.12 893.827 1026 927.434L1025.33 1147.42L1025.6 1318.43C1025.62 1346.38 1029.12 1377.19 1023.89 1404.82C1021.46 1417.65 1013.56 1430.98 999.553 1439C991.051 1443.87 979.68 1445.4 969.288 1446.09C948.615 1447.47 927.137 1446.65 906.37 1446.75L784.6 1447.25C751.297 1447.39 689.837 1450.38 660.549 1447.12C642.898 1445.15 630.23 1437.08 620.129 1426.53C618.212 1424.53 616.621 1422.45 614.998 1420.31L615.839 1418.17L619.96 1419.1C622.265 1420.59 624.189 1421.75 626.775 1422.91C635.039 1426.61 643.782 1427.41 653.219 1427.9C695.556 1430.14 739.531 1428.05 782.051 1428.05C820.511 1428.05 931.172 1431.87 961.145 1425.63C978.6 1422 989.473 1414.6 997.885 1402.66C1004 1393.98 1007.01 1384.69 1007.69 1374.91C1009.56 1347.86 1008.22 1320.2 1008.12 1293.11L1007.59 1143.65L1008.02 944.274C1008.14 910.852 1013.51 814.065 1003.09 789.835Z"/>
	<path fill="#95BEC0" transform="scale(0.365479 0.365727)" d="M1594.97 401.502C1603.94 402.977 1611.15 408.838 1616.2 414.538C1626.2 425.82 1631.32 441.126 1633.69 454.478C1636.86 472.434 1636.21 574.033 1631.07 591.613C1626.35 607.712 1615.62 623.857 1596.37 632.676C1588.64 636.222 1581.81 637.506 1572.84 637.85C1459.54 642.189 1344.48 637.992 1231.01 638.15Q1094.49 638.973 957.978 638.542C931.745 638.476 872.286 641.485 849.597 636.361C837.006 633.517 825.325 625.34 819.747 616.415C818.126 613.821 817.016 611 815.924 608.258C836.62 611.588 860.766 609.872 881.977 609.767L980.983 609.45Q1178.23 609.229 1375.47 610.843C1375.37 580.801 1375.73 550.709 1374.02 520.691C1382.81 546.821 1377.82 587.521 1377.42 615.134C1412.94 615.716 1536.9 619.445 1562.4 610.997C1581.24 604.751 1593.52 593.044 1600.95 578.86C1614.68 552.635 1613.97 461.496 1607.93 433.036C1605.54 421.804 1600.85 411.943 1594.97 401.502Z"/>
	<path fill="#FCFCFC" transform="scale(0.365479 0.365727)" d="M611 1842.68C610.267 1831.42 605.605 1810.26 611.169 1800.23C640.955 1794.3 694.056 1799.29 727.3 1797.73L729.021 1797.66Q730.09 1818.87 729.693 1840.09C753.421 1841.08 773.838 1844.49 790.233 1858.67C821.933 1886.1 815.807 1930.47 815.637 1964.12L650.856 1964.17C623.705 1964.19 594.183 1962.48 567.31 1965.25L530.638 1965.16C529.891 1929.06 522.353 1888.42 558.883 1859.97C574.23 1848.02 589.856 1844.3 611 1842.68Z"/>
	<path fill="#6FACA9" transform="scale(0.365479 0.365727)" d="M2338.8 1388.53C2339.98 1388.28 2341.11 1387.75 2342.33 1387.78C2343.41 1387.79 2382.04 1406.34 2397 1407.62C2422.75 1409.83 2453.02 1407.27 2479.17 1407.05Q2574.41 1406.01 2669.66 1405.85L3041.68 1406.69L3144.89 1406.37C3165.39 1406.27 3186.91 1407 3207.25 1405.13C3227.46 1403.27 3245.34 1396.05 3260.87 1386.4C3293.71 1366.01 3313.35 1337.5 3323.15 1306.64C3332.2 1278.11 3330.13 1248.2 3330.2 1219.09L3330.44 1083.09C3330.48 1060.63 3328.25 1036.64 3331.12 1014.35L3335.87 1011.85C3340.32 1013.84 3344.8 1016.08 3349.39 1017.86L3357.38 1022.99C3354.32 1094.36 3356.31 1166.21 3356.08 1237.63C3355.97 1272.26 3360.58 1311.4 3350.71 1345.16C3342.79 1372.28 3325.26 1400.01 3298.06 1419.2C3282.74 1430.01 3262.48 1438.62 3241.64 1440.93C3207.56 1444.72 3169.3 1442.57 3134.73 1442.69L2930.09 1443L2600.95 1442.36C2548.85 1442.32 2496.03 1444.18 2444.02 1442.67C2410.89 1441.71 2387.89 1434.77 2365.11 1415.78C2355.18 1407.51 2346.61 1397.98 2338.8 1388.53Z"/>
	<path fill="#FCFCFC" transform="scale(0.365479 0.365727)" d="M1200.38 468.17C1200.52 456.492 1200.32 444.664 1202.68 433.093C1207.11 411.452 1221.67 389.819 1246.38 377.387C1255.41 372.847 1269.45 371.782 1280.17 371.114C1325.81 368.268 1373.8 370.3 1419.66 370.227C1460.17 370.161 1509.44 366.835 1549.03 371.982C1572.46 375.028 1582.28 387.759 1594.97 401.502C1600.85 411.943 1605.54 421.804 1607.93 433.036C1613.97 461.496 1614.68 552.635 1600.95 578.86C1593.52 593.044 1581.24 604.751 1562.4 610.997C1536.9 619.445 1412.94 615.716 1377.42 615.134C1377.82 587.521 1382.81 546.821 1374.02 520.691C1372.35 516.183 1370.63 511.69 1368.39 507.321C1358.85 488.67 1345.56 477.944 1321.73 469.68C1303.3 464.839 1224.54 468.036 1200.38 468.17Z"/>
	<path fill="#3F6291" transform="scale(0.365479 0.365727)" d="M1953.64 1133.99C1986.03 1131.33 2015.62 1135.39 2043.15 1148.91C2087.93 1170.91 2115.5 1209.8 2126.35 1248.41C2140.58 1299.05 2130.22 1356.31 2091.76 1399.83C2069.15 1425.41 2038.53 1442.61 1998.46 1448.86C1973.94 1453.81 1941.69 1448.12 1919.61 1439.24C1874.91 1421.28 1848.24 1386.8 1834.44 1351.16C1814.78 1300.42 1819.21 1240.48 1853.99 1193.89C1876.91 1163.19 1908.7 1143.49 1953.64 1133.99Z"/>
	<path fill="#FCFCFC" transform="scale(0.365479 0.365727)" d="M2047.77 1232.8C2051.15 1232.81 2054.58 1233.18 2057.95 1233.42C2062.99 1235.69 2066.29 1237.39 2068.43 1241.84C2071.31 1247.82 2068.89 1255.4 2064.94 1260.8C2049.54 1281.87 2026.44 1301.59 2007.41 1321.05C1993.24 1335.55 1980.15 1351.6 1964.33 1365.07C1960.08 1368.69 1955.4 1373.04 1949.05 1374.39C1930.04 1363.73 1913.16 1342.85 1898.43 1328.67C1890.44 1321.21 1877.8 1311.73 1875.87 1301.92C1874.55 1295.2 1876.25 1289.69 1881.66 1284.34C1885.01 1283.12 1886.03 1282.27 1889.88 1282.6C1907.8 1284.15 1939.45 1320.24 1951.31 1331.19C1971.83 1308.85 2025.31 1248.55 2047.77 1232.8Z"/>
	<path fill="#3F6291" transform="scale(0.365479 0.365727)" d="M815.924 608.258C813.589 607.101 813.656 607.184 811.074 605.607C793.76 595.03 785.865 579.242 783.373 562.935C779.899 540.194 777.404 497.219 797.778 478.99C803.032 474.29 809.374 471.284 817.471 470.289C847.178 466.639 901.289 469.423 932.819 469.458L1180.84 469.957C1226.32 470.215 1274.73 473.021 1319.85 469.828C1320.48 469.783 1321.11 469.729 1321.73 469.68C1345.56 477.944 1358.85 488.67 1368.39 507.321C1370.63 511.69 1372.35 516.183 1374.02 520.691C1375.73 550.709 1375.37 580.801 1375.47 610.843Q1178.23 609.229 980.983 609.45L881.977 609.767C860.766 609.872 836.62 611.588 815.924 608.258Z"/>
	<path fill="#F1C4B9" transform="scale(0.365479 0.365727)" d="M567.31 1965.25L741.623 1965.03C764.191 1965 793.24 1962.29 814.951 1965.74L814.81 2139.43C814.723 2169.62 819.156 2204.51 810.821 2233.87C808.009 2243.78 803.828 2254.04 796.107 2262.42C789.224 2269.89 771.519 2278.99 769.15 2287.38C773.817 2289.55 777.384 2289.35 782.707 2289.63C754.165 2291.43 723.472 2289.43 694.612 2289.49C643.847 2289.6 592.922 2291.06 542.193 2289.18C549.464 2287.36 559.991 2288.17 567.763 2288.01C560.836 2284.03 553.773 2279.42 547.99 2274.49Q547.168 2273.8 546.38 2273.09Q545.593 2272.38 544.841 2271.65Q544.089 2270.91 543.373 2270.16Q542.658 2269.41 541.98 2268.64Q541.302 2267.86 540.662 2267.07Q540.022 2266.28 539.422 2265.47Q538.822 2264.66 538.262 2263.84Q537.702 2263.02 537.182 2262.18Q536.663 2261.34 536.186 2260.48Q535.708 2259.63 535.273 2258.76Q534.838 2257.9 534.445 2257.02Q534.053 2256.14 533.704 2255.25Q533.355 2254.37 533.05 2253.47Q532.745 2252.57 532.484 2251.67Q532.223 2250.76 532.007 2249.85Q531.791 2248.94 531.62 2248.02C526.739 2222.78 530.525 2170.82 530.568 2143.28C530.662 2084.06 528.153 2024.32 530.638 1965.16L567.31 1965.25Z"/>
	<path fill="#D08086" transform="scale(0.365479 0.365727)" d="M575.207 1966.66C623.591 1967.91 672.443 1966.94 720.874 1966.93C751.391 1966.92 784.898 1969.04 814.951 1965.74L814.81 2139.43C814.723 2169.62 819.156 2204.51 810.821 2233.87C808.009 2243.78 803.828 2254.04 796.107 2262.42C789.224 2269.89 771.519 2278.99 769.15 2287.38C773.817 2289.55 777.384 2289.35 782.707 2289.63C754.165 2291.43 723.472 2289.43 694.612 2289.49C643.847 2289.6 592.922 2291.06 542.193 2289.18C549.464 2287.36 559.991 2288.17 567.763 2288.01C605.113 2284.11 645.214 2288.8 683.149 2286.55C695.293 2280.15 706.829 2273.53 717.049 2265.39C762.528 2229.17 764.435 2185.35 764.553 2138.27C764.603 2118.3 764.941 2098.25 764.213 2078.28C763.771 2066.16 763.374 2049.06 752.144 2039.55C737.578 2027.22 675.614 2017.81 651.263 2008.57C622.725 1997.73 598.284 1983.15 575.207 1966.66Z"/>
	<path fill="#F1C4B9" transform="scale(0.365479 0.365727)" d="M3406.52 1981.01C3417.12 1982.12 3424.62 1993.73 3438.04 1996.3C3458.37 1995.44 3481.85 1994.75 3501.98 1996.8L3498.64 2000.96C3500.48 2018.05 3499.7 2035.59 3499.79 2052.74C3500.14 2117.88 3493 2183.33 3434.86 2235.51C3419.38 2249.41 3401.89 2260.58 3381.17 2269.75C3374.69 2272.62 3339.19 2284.73 3337.44 2287.95L3339.69 2289.77C3293.44 2291.08 3245.43 2291.73 3199.24 2289.61L3188.55 2290.06L3194.65 2287.89L3194.81 2286.19Q3190.7 2285.17 3186.66 2284.01Q3182.61 2282.86 3178.64 2281.58Q3174.66 2280.3 3170.76 2278.89Q3166.86 2277.48 3163.04 2275.94Q3159.23 2274.41 3155.5 2272.76Q3151.78 2271.1 3148.15 2269.33Q3144.52 2267.56 3140.99 2265.67Q3137.47 2263.78 3134.05 2261.78C3126.79 2258.87 3119.45 2252.87 3113.54 2248.51C3052.88 2203.66 3022.98 2133.95 3021.77 2071.11L3021.63 2069.89C3021.4 2065.76 3021.35 2062.51 3018.81 2058.73C3010.94 2055.09 3000.61 2056.85 2991.52 2057.19C2991.87 2036.66 2991.66 2016.12 2991.7 1995.59C3037.8 1995.66 3084.48 1997.03 3130.49 1995.07C3153.61 1996.38 3176.81 1994.91 3199.98 1994.67C3214.56 1995.43 3229.31 1995.92 3243.67 1993.61C3251.04 1996.85 3266.34 1996.47 3274.57 1995.69C3281.63 1995.03 3281.94 1995.21 3286.36 1990.95L3289.38 1994.43C3292.5 1992.62 3291.61 1993.69 3292.7 1991.6C3299.62 1996.64 3318.37 1994.93 3327.96 1994.82C3333.21 1994.76 3337.43 1994.87 3342.37 1993.3L3343.74 1995C3360.74 1995.37 3377.87 1994.58 3394.87 1994.16C3399.93 1989.85 3403.35 1986.27 3406.52 1981.01Z"/>
	<path fill="#EA9E9B" transform="scale(0.365479 0.365727)" d="M3023.59 2071.33C3023.59 2067.98 3023.89 2064.67 3024.15 2061.33C3032.09 2054.79 3300.91 2062.53 3339.41 2058.61L3340.42 2060.11L3337.85 2069.86C3358.32 2074.76 3401.27 2069.68 3424.89 2071.39C3403.46 2155.59 3337.73 2230.84 3254.63 2287.69C3237.37 2288.36 3215.51 2286.18 3199.24 2289.61L3188.55 2290.06L3194.65 2287.89L3194.81 2286.19Q3190.7 2285.17 3186.66 2284.01Q3182.61 2282.86 3178.64 2281.58Q3174.66 2280.3 3170.76 2278.89Q3166.86 2277.48 3163.04 2275.94Q3159.23 2274.41 3155.5 2272.76Q3151.78 2271.1 3148.15 2269.33Q3144.52 2267.56 3140.99 2265.67Q3137.47 2263.78 3134.05 2261.78C3141.38 2253.96 3174.31 2242.28 3187.02 2236.46C3263.58 2201.41 3312.31 2136.78 3335.75 2073.18C3291.1 2073.12 3046.4 2077.23 3023.59 2071.33Z"/>
	<path fill="#DD707A" transform="scale(0.365479 0.365727)" d="M3023.59 2071.33C3023.59 2067.98 3023.89 2064.67 3024.15 2061.33C3032.09 2054.79 3300.91 2062.53 3339.41 2058.61L3340.42 2060.11L3337.85 2069.86C3358.32 2074.76 3401.27 2069.68 3424.89 2071.39C3387.81 2075.36 3346.86 2071.18 3309.39 2070.71C3252.68 2069.99 3195.85 2070.85 3139.12 2070.81C3100.91 2070.78 3061.65 2069.18 3023.59 2071.33Z"/>
	<path fill="#D08086" transform="scale(0.365479 0.365727)" d="M3438.04 1996.3C3458.37 1995.44 3481.85 1994.75 3501.98 1996.8L3498.64 2000.96C3500.48 2018.05 3499.7 2035.59 3499.79 2052.74C3500.14 2117.88 3493 2183.33 3434.86 2235.51C3419.38 2249.41 3401.89 2260.58 3381.17 2269.75C3374.69 2272.62 3339.19 2284.73 3337.44 2287.95L3339.69 2289.77C3293.44 2291.08 3245.43 2291.73 3199.24 2289.61C3215.51 2286.18 3237.37 2288.36 3254.63 2287.69C3337.73 2230.84 3403.46 2155.59 3424.89 2071.39C3401.27 2069.68 3358.32 2074.76 3337.85 2069.86L3340.42 2060.11L3339.41 2058.61C3354.5 2053.78 3410.73 2057.19 3429.01 2057.43C3436.71 2037.15 3439.31 2017.32 3438.04 1996.3Z"/>
	<path fill="#B35F6C" transform="scale(0.365479 0.365727)" d="M3428.51 2059.27Q3463.08 2058.87 3497.65 2059.14L3498.36 2069.57C3491.53 2072.35 3362.37 2069.24 3337.85 2069.86L3340.42 2060.11C3362.8 2056.42 3403.9 2059.35 3428.51 2059.27Z"/>
	<path fill="#BE2944" transform="scale(0.365479 0.365727)" d="M3428.51 2059.27Q3463.08 2058.87 3497.65 2059.14L3498.36 2069.57C3480.55 2067.05 3441.45 2073.97 3428.29 2065.67L3428.51 2059.27Z"/>
	<path fill="#DD707A" transform="scale(0.365479 0.365727)" d="M3438.04 1996.3C3458.37 1995.44 3481.85 1994.75 3501.98 1996.8L3498.64 2000.96C3494.76 2018.76 3496.16 2041.05 3497.65 2059.14Q3463.08 2058.87 3428.51 2059.27C3403.9 2059.35 3362.8 2056.42 3340.42 2060.11L3339.41 2058.61C3354.5 2053.78 3410.73 2057.19 3429.01 2057.43C3436.71 2037.15 3439.31 2017.32 3438.04 1996.3Z"/>
	<path fill="#F1C4B9" transform="scale(0.365479 0.365727)" d="M3406.52 1981.01C3417.12 1982.12 3424.62 1993.73 3438.04 1996.3C3439.31 2017.32 3436.71 2037.15 3429.01 2057.43C3410.73 2057.19 3354.5 2053.78 3339.41 2058.61C3300.91 2062.53 3032.09 2054.79 3024.15 2061.33C3023.89 2064.67 3023.59 2067.98 3023.59 2071.33L3021.77 2071.11L3021.63 2069.89C3021.4 2065.76 3021.35 2062.51 3018.81 2058.73C3010.94 2055.09 3000.61 2056.85 2991.52 2057.19C2991.87 2036.66 2991.66 2016.12 2991.7 1995.59C3037.8 1995.66 3084.48 1997.03 3130.49 1995.07C3153.61 1996.38 3176.81 1994.91 3199.98 1994.67C3214.56 1995.43 3229.31 1995.92 3243.67 1993.61C3251.04 1996.85 3266.34 1996.47 3274.57 1995.69C3281.63 1995.03 3281.94 1995.21 3286.36 1990.95L3289.38 1994.43C3292.5 1992.62 3291.61 1993.69 3292.7 1991.6C3299.62 1996.64 3318.37 1994.93 3327.96 1994.82C3333.21 1994.76 3337.43 1994.87 3342.37 1993.3L3343.74 1995C3360.74 1995.37 3377.87 1994.58 3394.87 1994.16C3399.93 1989.85 3403.35 1986.27 3406.52 1981.01Z"/>
	<path fill="#EA9E9B" transform="scale(0.365479 0.365727)" d="M3406.52 1981.01C3417.12 1982.12 3424.62 1993.73 3438.04 1996.3C3439.31 2017.32 3436.71 2037.15 3429.01 2057.43C3410.73 2057.19 3354.5 2053.78 3339.41 2058.61C3300.91 2062.53 3032.09 2054.79 3024.15 2061.33C3023.89 2064.67 3023.59 2067.98 3023.59 2071.33L3021.77 2071.11L3021.63 2069.89C3021.9 2065.52 3021.1 2060.27 3025.1 2056.82C3060.65 2054.46 3098.15 2056.28 3133.88 2056.33L3341.3 2056.4C3345.99 2040.65 3351.31 2025.3 3350.36 2008.98C3349.98 2002.52 3350.19 1999.5 3343.74 1995C3360.74 1995.37 3377.87 1994.58 3394.87 1994.16C3399.93 1989.85 3403.35 1986.27 3406.52 1981.01Z"/>
	<path fill="#95BEC0" transform="scale(0.365479 0.365727)" d="M1890.19 814.23C1860.21 804.078 1824.66 763.179 1810.47 741.612C1773 684.692 1768.71 611.61 1795.57 551.697C1815.53 507.194 1852.82 467.118 1909.94 446.088C1948.25 431.987 1990.03 430.643 2030.18 441.093C2071.72 451.902 2117.89 480.959 2137.34 510.811C2183.14 565.991 2193.93 633.819 2174.69 696.818C2159.41 746.849 2125.56 793.506 2066.43 820.959Q2064.82 821.717 2063.18 822.445Q2061.54 823.173 2059.88 823.869Q2058.22 824.565 2056.53 825.23Q2054.85 825.894 2053.14 826.526Q2051.43 827.159 2049.7 827.758Q2047.98 828.358 2046.23 828.925Q2044.48 829.492 2042.72 830.025Q2040.95 830.558 2039.17 831.058Q2037.39 831.558 2035.59 832.024Q2033.79 832.49 2031.98 832.921Q2030.17 833.353 2028.34 833.75Q2026.51 834.146 2024.67 834.509Q2022.83 834.871 2020.98 835.198Q2019.13 835.525 2017.27 835.817Q2015.4 836.109 2013.53 836.365Q2011.66 836.622 2009.78 836.843Q2007.9 837.064 2006.02 837.249Q2004.13 837.434 2002.24 837.583Q2000.35 837.733 1998.46 837.846Q1996.56 837.959 1994.66 838.037Q1992.76 838.114 1990.86 838.155Q1988.96 838.197 1987.06 838.202Q1985.16 838.207 1983.26 838.176Q1981.35 838.146 1979.45 838.079Q1977.55 838.012 1975.66 837.909Q1973.76 837.806 1971.87 837.667Q1969.98 837.528 1968.09 837.353Q1966.2 837.179 1964.32 836.968Q1962.44 836.757 1960.57 836.511Q1958.69 836.265 1956.83 835.984Q1954.96 835.702 1953.11 835.385Q1951.25 835.068 1949.41 834.716C1928.07 830.736 1908.32 823.52 1890.19 814.23Z"/>
	<path fill="#FCFCFC" transform="scale(0.365479 0.365727)" d="M2086.37 549.824C2091.55 550.105 2096.06 550.288 2100.09 553.081C2105.48 556.811 2107.14 562.111 2106.53 567.41C2105.97 572.361 2102.81 576.658 2099.37 580.788C2087.97 594.474 1966.77 719.88 1959.27 723.754C1954.55 726.19 1951.52 726.113 1946.05 725.576C1927.67 717.447 1901.98 683.741 1888.71 669.445C1878.58 659.24 1867.11 649.154 1869.73 635.486C1870.61 630.872 1873.62 625.471 1879.25 623.026C1881.98 621.837 1884.95 621.516 1887.96 622.067C1907.28 625.605 1940.22 669.423 1952.37 682.963C1983.83 653.824 2012.05 621.902 2041.61 591.607C2055.06 577.822 2068.65 560.513 2086.37 549.824Z"/>
	<path fill="#2A8A8C" transform="scale(0.365479 0.365727)" d="M3363.36 1543.64C3412 1504.06 3465.22 1466.18 3531.81 1444.4C3547.92 1439.13 3564.49 1436.22 3580.84 1431.71Q3580.43 1500.47 3575.8 1569.15C3573.92 1593.93 3568.62 1619.19 3568.34 1643.93C3568.6 1658.3 3552.05 1730.72 3545.41 1744.75C3537.79 1760.37 3532.06 1776.61 3525.78 1792.56C3540.75 1812.29 3541.82 1830.94 3538.15 1852.94C3542.68 1853.22 3543.48 1852.26 3547.34 1850.64C3535.43 1861.88 3493.52 1888.01 3489.4 1898.83L3490.28 1901.4C3486.65 1904.38 3483.14 1907.83 3478.75 1910.14Q3459.21 1927.54 3440.16 1945.24C3460.8 1944.09 3504.62 1937.79 3521.29 1948.27C3528.11 1952.56 3532.12 1958.59 3532.48 1965.3C3532.96 1974.31 3527.46 1983.35 3518.98 1989.58C3513.75 1993.41 3508.87 1995.23 3501.98 1996.8C3481.85 1994.75 3458.37 1995.44 3438.04 1996.3C3424.62 1993.73 3417.12 1982.12 3406.52 1981.01C3403.35 1986.27 3399.93 1989.85 3394.87 1994.16C3377.87 1994.58 3360.74 1995.37 3343.74 1995L3342.37 1993.3C3337.43 1994.87 3333.21 1994.76 3327.96 1994.82C3318.37 1994.93 3299.62 1996.64 3292.7 1991.6C3291.61 1993.69 3292.5 1992.62 3289.38 1994.43L3286.36 1990.95C3281.94 1995.21 3281.63 1995.03 3274.57 1995.69C3266.34 1996.47 3251.04 1996.85 3243.67 1993.61C3245.97 1991.76 3248.25 1989.9 3250.3 1987.89C3274.58 1963.99 3268.6 1921.02 3263.95 1893.2C3265.82 1877.53 3276.42 1805.94 3288.47 1798.34C3274.5 1781.45 3261.83 1762.89 3253.45 1743.99C3234.62 1701.59 3267.83 1660.31 3292.71 1623.26C3310.12 1598 3336.2 1563.28 3363.36 1543.64Z"/>
	<path fill="#1D7879" transform="scale(0.365479 0.365727)" d="M3476.19 1860.45C3471.59 1841.87 3475.02 1815.26 3490.18 1799.42C3493.9 1795.53 3498.51 1793.01 3504.96 1792.36C3510.4 1791.81 3517.59 1793.63 3522.91 1794.55C3528.11 1805.91 3511.64 1832.42 3504.84 1843.1C3500.68 1849.62 3492.3 1865.09 3484.62 1868.77L3476.19 1860.45Z"/>
	<path fill="#FCFCFC" transform="scale(0.365479 0.365727)" d="M3263.95 1893.2C3265.82 1877.53 3276.42 1805.94 3288.47 1798.34C3304.43 1814.45 3320.35 1831.91 3339.62 1845.85C3318.28 1893.01 3303.59 1942.83 3286.36 1990.95C3281.94 1995.21 3281.63 1995.03 3274.57 1995.69C3266.34 1996.47 3251.04 1996.85 3243.67 1993.61C3245.97 1991.76 3248.25 1989.9 3250.3 1987.89C3274.58 1963.99 3268.6 1921.02 3263.95 1893.2Z"/>
	<path fill="#FCFCFC" transform="scale(0.365479 0.365727)" d="M3292.7 1991.6C3310.43 1944.64 3324.32 1895.88 3345.34 1849.77C3373.99 1864.2 3385.25 1864.3 3413.39 1873.3L3416.04 1874.16C3406.57 1875.58 3399.89 1877.09 3393.14 1882.5C3392.87 1909.44 3388.53 1957.87 3406.52 1981.01C3403.35 1986.27 3399.93 1989.85 3394.87 1994.16C3377.87 1994.58 3360.74 1995.37 3343.74 1995L3342.37 1993.3C3337.43 1994.87 3333.21 1994.76 3327.96 1994.82C3318.37 1994.93 3299.62 1996.64 3292.7 1991.6Z"/>
	<path fill="#2A8A8C" transform="scale(0.365479 0.365727)" d="M3393.14 1882.5C3392.87 1909.44 3388.53 1957.87 3406.52 1981.01C3403.35 1986.27 3399.93 1989.85 3394.87 1994.16C3377.87 1994.58 3360.74 1995.37 3343.74 1995L3342.37 1993.3C3339.86 1986 3338.21 1978.15 3338.37 1970.57C3338.89 1945.18 3360.83 1953.3 3374.21 1943.14C3368.44 1920.23 3377.89 1901.9 3393.14 1882.5Z"/>
	<path fill="#95BEC0" transform="scale(0.365479 0.365727)" d="M3441.38 1644.83C3481.54 1647.86 3522.24 1653.17 3562.47 1654.83C3566.67 1651.67 3566.86 1648.18 3568.34 1643.93C3568.6 1658.3 3552.05 1730.72 3545.41 1744.75C3545.25 1741.57 3545.21 1739.96 3542.68 1737.34C3496.25 1730.74 3445.59 1725.57 3398.4 1724.01Q3419.49 1684.3 3441.38 1644.83Z"/>
	<path fill="#95BEC0" transform="scale(0.365479 0.365727)" d="M3292.71 1623.26C3310.12 1598 3336.2 1563.28 3363.36 1543.64C3360.35 1547.65 3357.1 1549.76 3359.14 1554.49C3362.91 1563.23 3373.48 1573.51 3379.9 1581.59L3432.61 1647.96C3419.38 1672.65 3406.44 1697.44 3392.84 1722.01C3379.89 1709.78 3299.01 1625.26 3292.71 1623.26Z"/>
	<path fill="#1D7879" transform="scale(0.365479 0.365727)" d="M3430.39 1874.36C3445.71 1870.73 3460.26 1859.16 3476.19 1860.45L3484.62 1868.77C3480.54 1876.48 3485.91 1886.73 3489 1894.33L3468.06 1911.24C3473.21 1909.41 3473.29 1909.13 3478.75 1910.14Q3459.21 1927.54 3440.16 1945.24C3460.8 1944.09 3504.62 1937.79 3521.29 1948.27C3528.11 1952.56 3532.12 1958.59 3532.48 1965.3C3532.96 1974.31 3527.46 1983.35 3518.98 1989.58C3513.75 1993.41 3508.87 1995.23 3501.98 1996.8C3481.85 1994.75 3458.37 1995.44 3438.04 1996.3C3424.62 1993.73 3417.12 1982.12 3406.52 1981.01C3388.53 1957.87 3392.87 1909.44 3393.14 1882.5C3399.89 1877.09 3406.57 1875.58 3416.04 1874.16C3422.72 1875.75 3423.6 1875.7 3430.39 1874.36Z"/>
	<path fill="#FCFCFC" transform="scale(0.365479 0.365727)" d="M3430.39 1874.36C3445.71 1870.73 3460.26 1859.16 3476.19 1860.45L3484.62 1868.77C3480.54 1876.48 3485.91 1886.73 3489 1894.33L3468.06 1911.24Q3450.93 1925.84 3434.83 1941.1C3438.67 1924.79 3450.54 1898.59 3442.49 1882.48C3439.96 1877.42 3436.33 1876.65 3430.39 1874.36Z"/>
	<path fill="#020410" transform="scale(0.365479 0.365727)" d="M1277.05 844.427C1289.12 801.581 1320.38 759.778 1370.21 735.609C1400.25 721.04 1433.99 717.038 1468.76 722.75C1546.97 735.597 1656.31 800.213 1729.97 793.751C1741.69 792.723 1751.36 788.607 1761.41 784.26C1787.54 837.955 1791.61 925.195 1759.37 978.054C1738.98 1011.49 1711.58 1025.09 1669.79 1041.42L1669.07 1125.91C1668.97 1139.72 1670.97 1156.17 1667.59 1169.69C1666.78 1172.96 1664.9 1175.67 1662.79 1178.56Q1661.08 1110.68 1661.64 1042.8C1617.54 1054.4 1559.66 1052.99 1514.34 1046.34C1439.72 1035.39 1375.03 1006.29 1332.61 958.502C1316.55 1014.17 1297.3 1067.89 1265.11 1119.6C1263.15 1106.03 1259.87 1092.58 1251.8 1080.22C1244.09 1068.4 1232.31 1056.62 1214.91 1052.56C1199.79 1049.03 1185.57 1052.72 1172.06 1057.87C1165.06 1049.34 1163.2 1037.06 1160.67 1027.25C1151.02 989.808 1143.34 950.481 1155.17 912.786C1162.41 889.736 1177.07 865.808 1204.53 852.779C1227.9 841.692 1250.82 842.187 1277.05 844.427Z"/>
	<path fill="#0E162F" transform="scale(0.365479 0.365727)" d="M1475.59 860.852C1485.34 859.801 1495.11 860.093 1504.84 861.083C1533.49 863.997 1561.15 871.083 1589.59 874.887C1615.45 878.345 1653.28 877.082 1676.66 883.834C1683.88 891.663 1681.11 902.033 1680.32 911.061C1670.21 922.748 1659.67 927.794 1643.38 933.629C1606.06 944.144 1563.33 950.732 1524.13 942.177C1496.27 936.096 1470.02 920.289 1456.54 900.72C1451.06 892.755 1448.17 883.707 1452.6 875.044C1456.53 867.352 1466.17 863.897 1475.59 860.852Z"/>
	<path fill="#F1C4B9" transform="scale(0.365479 0.365727)" d="M1332.61 958.502C1375.03 1006.29 1439.72 1035.39 1514.34 1046.34C1559.66 1052.99 1617.54 1054.4 1661.64 1042.8Q1661.08 1110.69 1662.79 1178.56C1662.6 1238.53 1637.19 1305.44 1579.52 1348.75C1557.32 1365.42 1537.72 1372.8 1509.86 1382.74C1509.31 1382.93 1508.85 1383.24 1508.34 1383.49C1508.38 1403.73 1505.76 1426.51 1510.42 1446.32C1510.58 1447.01 1510.69 1447.7 1510.83 1448.39C1506.09 1468.63 1499.74 1488.69 1494.22 1508.82C1491.12 1520.09 1489.31 1532.99 1484.54 1543.85L1483.23 1537.67C1474.43 1538.18 1466.48 1545.27 1459.74 1549.42C1418.02 1575.12 1370.19 1572.89 1323.34 1556.63C1320.93 1555.79 1319.16 1555.51 1316.51 1555.43C1305.86 1541.92 1278.82 1469.22 1270.41 1448.86L1276.66 1446.26C1286.38 1437.57 1279.93 1355.51 1279.71 1339.43L1279.39 1338.11C1277.09 1326.59 1282.74 1296.14 1275.4 1288.2C1271.6 1287.48 1272.79 1288.01 1269.6 1286.17C1247.3 1273.36 1194.01 1210.6 1191.26 1189.61C1185.81 1188.82 1181.46 1187.5 1176.99 1185.01C1156.46 1173.61 1144.66 1155.13 1140.45 1136.51C1133.23 1104.51 1148.08 1083.14 1172.06 1057.87C1185.57 1052.72 1199.79 1049.03 1214.91 1052.56C1232.31 1056.62 1244.09 1068.4 1251.8 1080.22C1259.87 1092.58 1263.15 1106.03 1265.11 1119.6C1297.3 1067.89 1316.55 1014.17 1332.61 958.502Z"/>
	<path fill="#020410" transform="scale(0.365479 0.365727)" d="M1349.99 1083.96C1372.16 1084.61 1395.15 1082.24 1417.11 1084.2C1423.9 1084.81 1427.26 1085.69 1431.62 1089.64C1432.01 1093.82 1431.01 1095.63 1428.45 1099.31C1410.09 1098.8 1391.74 1099.94 1373.38 1099.67C1363.5 1099.52 1354.49 1099.49 1347.38 1093.86C1346.4 1089.35 1347.41 1087.87 1349.99 1083.96Z"/>
	<path fill="#020410" transform="scale(0.365479 0.365727)" d="M1554.34 1084.22C1576.41 1084.63 1599.16 1082.26 1621.07 1083.78C1627.44 1084.23 1632.32 1084.84 1636.61 1088.75C1637.57 1093.86 1636.71 1094.76 1634.06 1099.34C1613.96 1099 1564.82 1104.1 1550.58 1094.22C1550.23 1089.39 1551.4 1088.38 1554.34 1084.22Z"/>
	<path fill="#020410" transform="scale(0.365479 0.365727)" d="M1380.57 1133.13C1381.49 1133.09 1382.4 1133.02 1383.32 1133.01C1391.27 1132.89 1398.21 1134.62 1403.89 1138.86C1409.51 1143.04 1411.92 1149.02 1411.83 1154.87C1411.67 1165.26 1406.05 1171.5 1396.46 1178.46C1394.43 1178.71 1392.4 1178.99 1390.35 1179.12C1384.4 1179.5 1377.75 1177.85 1373.49 1174.57C1367.09 1169.66 1365.11 1163.45 1365.46 1156.7C1366 1146.28 1370.8 1140.2 1380.57 1133.13Z"/>
	<path fill="#020410" transform="scale(0.365479 0.365727)" d="M1586.51 1133.49C1595.64 1132.93 1602.95 1133.13 1610.06 1138.01C1616.46 1142.39 1619.45 1148.89 1619.23 1155.32C1618.91 1165.09 1613.75 1172.01 1604.44 1178.51C1602.08 1178.77 1599.39 1179.17 1596.98 1179.12C1590.31 1178.98 1584.96 1177.45 1580.32 1173.85C1573.64 1168.68 1571.71 1161.61 1572.38 1154.6C1573.25 1145.54 1577.76 1139.52 1586.51 1133.49Z"/>
	<path fill="#020410" transform="scale(0.365479 0.365727)" d="M1191.26 1189.61C1207.34 1190.7 1217.26 1189.26 1231.14 1183.09C1239.82 1220.8 1253.43 1253.69 1275.4 1288.2C1271.6 1287.48 1272.79 1288.01 1269.6 1286.17C1247.3 1273.36 1194.01 1210.6 1191.26 1189.61Z"/>
	<path fill="#EA9E9B" transform="scale(0.365479 0.365727)" d="M1195.18 1077.97Q1198.73 1077.97 1202.27 1078.13C1213.33 1078.67 1221.56 1082.1 1228.62 1088.56C1239.19 1098.24 1241.6 1112.58 1239.34 1124.65C1236.53 1139.7 1227.77 1150.17 1211.9 1159.21C1207.52 1159.3 1202.91 1159.41 1198.7 1158.34C1187.25 1155.45 1178.75 1147.72 1174.1 1139.59C1166.06 1125.53 1166.18 1106.82 1174.36 1092.81C1178.82 1085.18 1185.09 1081.05 1195.18 1077.97Z"/>
	<path fill="#EA9E9B" transform="scale(0.365479 0.365727)" d="M1279.26 1291.3C1306.75 1332.37 1353.29 1367.78 1412.19 1382.23C1441.58 1389.43 1476.12 1390.81 1505.78 1383.56C1508.96 1402.59 1506.27 1424.55 1506.11 1443.87C1485.44 1440.59 1464.28 1439.65 1443.6 1436.06C1365.94 1422.61 1321.17 1388.8 1279.71 1339.43L1279.39 1338.11Q1280.09 1314.7 1279.26 1291.3Z"/>
	<path fill="#FCFCFC" transform="scale(0.365479 0.365727)" d="M619.96 1419.1C616.556 1415.65 612.627 1412.55 609.137 1409.15C600.819 1401.04 593.702 1391.58 592.185 1381.27C587.252 1347.73 590.803 1311.53 590.966 1277.74L591.306 1084.42L590.617 893.31C590.508 863.945 586.462 827.543 592.123 798.955C593.994 789.506 601.519 777.573 612.354 772.152C621.023 767.814 632.405 766.197 642.595 765.587C692.406 762.603 745.365 765.766 795.559 765.869C834.632 765.949 942.108 762.085 971.216 767.3C987.265 770.175 994.715 779.993 1003.09 789.835C1013.51 814.065 1008.14 910.852 1008.02 944.274L1007.59 1143.65L1008.12 1293.11C1008.22 1320.2 1009.56 1347.86 1007.69 1374.91C1007.01 1384.69 1004 1393.98 997.885 1402.66C989.473 1414.6 978.6 1422 961.145 1425.63C931.172 1431.87 820.511 1428.05 782.051 1428.05C739.531 1428.05 695.556 1430.14 653.219 1427.9C643.782 1427.41 635.039 1426.61 626.775 1422.91C624.189 1421.75 622.265 1420.59 619.96 1419.1Z"/>
	<path fill="#B35F6C" transform="scale(0.365479 0.365727)" d="M915.292 1058.02L969.336 1057.87L969.268 1247.76L915.566 1247.85L915.292 1058.02Z"/>
	<path fill="#95BEC0" transform="scale(0.365479 0.365727)" d="M821.032 1021.8L876.291 1021.83L876.205 1176.62C876.226 1199.7 879.038 1225.02 875.348 1247.8L820.888 1247.95L821.032 1021.8Z"/>
	<path fill="#DD707A" transform="scale(0.365479 0.365727)" d="M734.925 952.649L783.62 952.661L783.746 1156.45C783.671 1182.23 787.013 1221.28 783.06 1245.61L779.644 1247.45L735.013 1247.43L734.925 952.649Z"/>
	<path fill="#3F6291" transform="scale(0.365479 0.365727)" d="M645.704 906.126L701.773 906.192L701.516 1132.01C701.553 1170.23 703.973 1209.43 700.989 1247.54L644.712 1247.65C645.56 1133.83 643.721 1019.94 645.704 906.126Z"/>
	<defs>
		<linearGradient id="gradient_2" gradientUnits="userSpaceOnUse" x1="1424.8015" y1="1782.4169" x2="2060.2791" y2="1848.9962">
			<stop offset="0" stop-color="#165A5F"/>
			<stop offset="1" stop-color="#237879"/>
		</linearGradient>
	</defs>
	<path fill="url(#gradient_2)" transform="scale(0.365479 0.365727)" d="M1510.83 1448.39C1526.87 1441.88 1602.64 1454.31 1621.13 1458.5C1719.45 1480.79 1773.91 1540.19 1819.88 1605.46C1886.79 1700.46 1938.83 1801.83 1998.31 1899.52C2005.71 1911.69 2032.46 1960.25 2041.37 1968.16C2042.44 1969.11 2044.16 1969.51 2045.56 1970.19C2028.17 2014.46 2011.84 2059.58 1997.29 2104.43C1987.96 2136.61 1975.09 2168.67 1962.84 2200.28C1955.54 2188.6 1934.4 2174.26 1920.36 2167.28C1912.75 2156.29 1914.65 2141.46 1906.71 2130.35C1896.42 2115.97 1875.19 2104.35 1858.14 2094.52C1852.69 2091.38 1845.85 2088.73 1841.33 2084.88C1840.74 2084.39 1840.19 2083.87 1839.63 2083.37C1837.1 2085.44 1836.49 2085.16 1833.02 2085.81C1804.14 2078.35 1768.92 2077.68 1738.51 2076.68C1696.67 2094.6 1656.46 2142.25 1615.87 2151.8C1607.89 2153.68 1598.31 2153.09 1590.01 2153.03C1589.93 2136.98 1594.56 2115.9 1587.14 2100.86C1584.66 2098.92 1582.61 2097.98 1579.18 2097.3C1570.34 2095.53 1552.85 2095.52 1545.18 2099.39C1542.76 2100.61 1543.1 2102.2 1542.55 2104.19C1510.64 2107.65 1456.47 2104.82 1422.4 2104.74L1422.51 1881.11L1422.56 1814.96C1422.56 1805.43 1424.03 1794.02 1422.13 1784.69C1421.72 1782.66 1420.75 1781.33 1419.52 1779.53L1419.94 1778.3C1408.11 1755.82 1399.49 1732.09 1388.65 1709.27C1364.36 1658.12 1338.89 1607.07 1316.51 1555.43C1319.16 1555.51 1320.93 1555.79 1323.34 1556.63C1370.19 1572.89 1418.02 1575.12 1459.74 1549.42C1466.48 1545.27 1474.43 1538.18 1483.23 1537.67L1484.54 1543.85C1489.31 1532.99 1491.12 1520.09 1494.22 1508.82C1499.74 1488.69 1506.09 1468.63 1510.83 1448.39Z"/>
	<path fill="#FCFCFC" transform="scale(0.365479 0.365727)" d="M1316.51 1555.43C1319.16 1555.51 1320.93 1555.79 1323.34 1556.63C1370.19 1572.89 1418.02 1575.12 1459.74 1549.42C1466.48 1545.27 1474.43 1538.18 1483.23 1537.67L1484.54 1543.85Q1459.95 1629.1 1437.64 1714.7C1432.18 1734.74 1430 1759.7 1419.94 1778.3C1408.11 1755.82 1399.49 1732.09 1388.65 1709.27C1364.36 1658.12 1338.89 1607.07 1316.51 1555.43Z"/>
	<path fill="#06333A" transform="scale(0.365479 0.365727)" d="M1740.07 1711.28C1803.67 1829.1 1881.93 1940.47 1960.6 2052.81C1968.25 2063.73 1987.75 2098.09 1997.29 2104.43C1987.96 2136.61 1975.09 2168.67 1962.84 2200.28C1955.54 2188.6 1934.4 2174.26 1920.36 2167.28C1912.75 2156.29 1914.65 2141.46 1906.71 2130.35C1896.42 2115.97 1875.19 2104.35 1858.14 2094.52C1852.69 2091.38 1845.85 2088.73 1841.33 2084.88C1840.74 2084.39 1840.19 2083.87 1839.63 2083.37C1837.1 2085.44 1836.49 2085.16 1833.02 2085.81C1804.14 2078.35 1768.92 2077.68 1738.51 2076.68C1738.52 2054.81 1733.91 1949.83 1741.32 1937.96C1735.57 1917.98 1739.54 1885.87 1739.55 1864.4Q1739.24 1787.84 1740.07 1711.28Z"/>
	<path fill="#D5DAE3" transform="scale(0.365479 0.365727)" d="M1738.51 2076.68C1738.52 2054.81 1733.91 1949.83 1741.32 1937.96Q1789.98 2010.86 1839.63 2083.37C1837.1 2085.44 1836.49 2085.16 1833.02 2085.81C1804.14 2078.35 1768.92 2077.68 1738.51 2076.68Z"/>
	<defs>
		<linearGradient id="gradient_3" gradientUnits="userSpaceOnUse" x1="839.85846" y1="1832.1465" x2="1452.9663" y2="1918.6266">
			<stop offset="0" stop-color="#093A42"/>
			<stop offset="1" stop-color="#13555A"/>
		</linearGradient>
	</defs>
	<path fill="url(#gradient_3)" transform="scale(0.365479 0.365727)" d="M885.247 2287.88C883.932 2285.2 882.957 2282.59 882.18 2279.78C876.376 2258.83 876.321 2235.69 874.877 2214.33L868.004 2091.04L857.916 1915.45C854.484 1858.74 848.195 1802.33 858.666 1745.82C869.931 1685.03 893.764 1626.85 938.836 1575.18C987.405 1519.5 1075.12 1468.09 1162.97 1454.5C1183.84 1451.27 1255.81 1441.57 1270.41 1448.86C1278.82 1469.22 1305.86 1541.92 1316.51 1555.43C1338.89 1607.07 1364.36 1658.12 1388.65 1709.27C1399.49 1732.09 1408.11 1755.82 1419.94 1778.3L1419.52 1779.53C1420.75 1781.33 1421.72 1782.66 1422.13 1784.69C1424.03 1794.02 1422.56 1805.43 1422.56 1814.96L1422.51 1881.11L1422.4 2104.74C1456.47 2104.82 1510.64 2107.65 1542.55 2104.19C1543.1 2102.2 1542.76 2100.61 1545.18 2099.39C1552.85 2095.52 1570.34 2095.53 1579.18 2097.3C1582.61 2097.98 1584.66 2098.92 1587.14 2100.86C1594.56 2115.9 1589.93 2136.98 1590.01 2153.03L1589.51 2246.53C1589.44 2260.63 1586.87 2277.28 1590.53 2290.96C1589.46 2294.11 1588.37 2295.81 1585.69 2298.35C1575.25 2301.6 1567.45 2302.32 1556.29 2300.24C1547.91 2298.69 1546.53 2296.03 1542.46 2290.76L1542.48 2282.48C1495.77 2282.64 1128.97 2279.32 1120.5 2284.51C1120.12 2284.74 1119.88 2285.07 1119.56 2285.35L1118.62 2285.64C1118.02 2289.56 1118.29 2290.08 1114.78 2292.91C1055.29 2296.25 991.665 2295.92 932.029 2293.9C927.569 2291.34 928.443 2289.52 927.635 2285.54C927.716 2280.18 926.877 2274.89 926.181 2269.57C925.016 2277.47 926.104 2284.13 927.796 2291.87C914.689 2292.06 895.72 2294.63 885.247 2287.88Z"/>
	<path fill="#020410" transform="scale(0.365479 0.365727)" d="M1419.52 1779.53C1420.75 1781.33 1421.72 1782.66 1422.13 1784.69C1424.03 1794.02 1422.56 1805.43 1422.56 1814.96L1422.51 1881.11L1422.4 2104.74C1456.47 2104.82 1510.64 2107.65 1542.55 2104.19L1542.79 2113.44C1415.85 2113.57 1288.49 2114.97 1161.61 2114.04C1156.5 2114 1154.21 2113.45 1150.31 2111.05L1149.62 2104.31C1237.77 2102.01 1327.28 2104.54 1415.56 2104.79C1415.25 2067.99 1410.81 1788.49 1419.52 1779.53Z"/>
	<path fill="#FCFCFC" transform="scale(0.365479 0.365727)" d="M901.744 2128.39C900.692 2115.15 896.715 2096.97 906.754 2085.44C912.64 2083.16 913.784 2083.7 920.125 2084.39C928.777 2081.87 919.756 2053.54 927.557 2044.83C930.734 2041.28 933.656 2040.12 939.253 2039.61C952.942 2038.38 968.255 2040.37 982.168 2040.33C1020.8 2040.21 1065.17 2036.95 1103.11 2040.26C1108.15 2040.7 1112 2041.56 1115.72 2044.4C1127.18 2053.14 1121.69 2066.56 1121.09 2077.27C1120.88 2081 1120.57 2082.65 1124 2085.57C1129.47 2085.7 1134.62 2085.22 1140.04 2084.69C1145.57 2087.16 1146.42 2089.07 1149.57 2093.21C1146.56 2104.7 1148.36 2116.85 1147.5 2128.56C1065.77 2128.28 983.366 2130.87 901.744 2128.39Z"/>
	<path fill="#95BEC0" transform="scale(0.365479 0.365727)" d="M901.744 2128.39C983.366 2130.87 1065.77 2128.28 1147.5 2128.56C1143.42 2129.47 1136.51 2129.93 1134.66 2133.05C1129.82 2141.23 1121 2265.45 1118.62 2285.64C1118.02 2289.56 1118.29 2290.08 1114.78 2292.91C1055.29 2296.25 991.665 2295.92 932.029 2293.9C927.569 2291.34 928.443 2289.52 927.635 2285.54C927.716 2280.18 926.877 2274.89 926.181 2269.57C927.268 2258.31 924.967 2245.91 923.95 2234.57C921.779 2210.35 919.156 2186.14 918.049 2161.88C914.987 2151.3 919.864 2141.08 911.994 2132.08C909.228 2131.25 906.641 2130.4 904.011 2129.34C903.25 2129.03 902.5 2128.7 901.744 2128.39Z"/>
	<path fill="#2A8A8C" transform="scale(0.365479 0.365727)" d="M901.744 2128.39C983.366 2130.87 1065.77 2128.28 1147.5 2128.56C1143.42 2129.47 1136.51 2129.93 1134.66 2133.05C1129.82 2141.23 1121 2265.45 1118.62 2285.64C1118.02 2289.56 1118.29 2290.08 1114.78 2292.91C1055.29 2296.25 991.665 2295.92 932.029 2293.9C927.569 2291.34 928.443 2289.52 927.635 2285.54L931.01 2290.34C946.988 2295.48 1036.19 2292.42 1059.12 2292.35C1062.5 2243.46 1066.57 2194.46 1067.84 2145.51L977.325 2145.55C958.8 2145.56 939.045 2144.53 920.73 2146.71C917.784 2151.06 918.324 2157.02 918.049 2161.88C914.987 2151.3 919.864 2141.08 911.994 2132.08C909.228 2131.25 906.641 2130.4 904.011 2129.34C903.25 2129.03 902.5 2128.7 901.744 2128.39Z"/>
	<path fill="#155D62" transform="scale(0.365479 0.365727)" d="M1149.57 2093.21C1150.87 2097.52 1150.57 2100.05 1149.62 2104.31L1150.31 2111.05C1154.21 2113.45 1156.5 2114 1161.61 2114.04C1288.49 2114.97 1415.85 2113.57 1542.79 2113.44L1542.55 2104.19C1543.1 2102.2 1542.76 2100.61 1545.18 2099.39C1552.85 2095.52 1570.34 2095.53 1579.18 2097.3C1582.61 2097.98 1584.66 2098.92 1587.14 2100.86C1594.56 2115.9 1589.93 2136.98 1590.01 2153.03L1589.51 2246.53C1589.44 2260.63 1586.87 2277.28 1590.53 2290.96C1589.46 2294.11 1588.37 2295.81 1585.69 2298.35C1575.25 2301.6 1567.45 2302.32 1556.29 2300.24C1547.91 2298.69 1546.53 2296.03 1542.46 2290.76L1542.48 2282.48C1495.77 2282.64 1128.97 2279.32 1120.5 2284.51C1120.12 2284.74 1119.88 2285.07 1119.56 2285.35L1118.62 2285.64C1121 2265.45 1129.82 2141.23 1134.66 2133.05C1136.51 2129.93 1143.42 2129.47 1147.5 2128.56C1148.36 2116.85 1146.56 2104.7 1149.57 2093.21Z"/>
	<path fill="#FCFCFC" transform="scale(0.365479 0.365727)" d="M1542.55 2104.19C1543.1 2102.2 1542.76 2100.61 1545.18 2099.39C1552.85 2095.52 1570.34 2095.53 1579.18 2097.3C1582.61 2097.98 1584.66 2098.92 1587.14 2100.86C1594.56 2115.9 1589.93 2136.98 1590.01 2153.03L1589.51 2246.53C1589.44 2260.63 1586.87 2277.28 1590.53 2290.96C1589.46 2294.11 1588.37 2295.81 1585.69 2298.35C1575.25 2301.6 1567.45 2302.32 1556.29 2300.24C1547.91 2298.69 1546.53 2296.03 1542.46 2290.76L1542.48 2282.48C1539.62 2226.49 1542.58 2169.53 1542.79 2113.44L1542.55 2104.19Z"/>
	<defs>
		<linearGradient id="gradient_4" gradientUnits="userSpaceOnUse" x1="2414.2129" y1="2301.5847" x2="2610.5347" y2="1560.2802">
			<stop offset="0" stop-color="#151D3D"/>
			<stop offset="1" stop-color="#343F61"/>
		</linearGradient>
	</defs>
	<path fill="url(#gradient_4)" transform="scale(0.365479 0.365727)" d="M2202.04 1617.1C2221.47 1612.95 2369.82 1616.1 2400.98 1616.1L3004.2 1615.66C3018.93 1622.03 3028.79 1630.17 3033.45 1642.72C3037.34 1653.22 3036.7 1663.07 3033.95 1673.61C3023.22 1714.77 3007.61 1755.74 2993.73 1796.35L2920.65 2008.33Q2891.95 2092.89 2861.79 2177.16C2855.27 2195.29 2847.61 2228.98 2835.21 2243.86C2834.64 2244.54 2834.03 2245.2 2833.45 2245.87C2817.32 2263.17 2788.98 2281.61 2760.7 2285.59C2737.42 2289.03 2711.72 2287.6 2688.05 2287.67L2579.78 2287.93L2121.43 2287.62L1795.51 2288.98C1748.23 2289.11 1698.92 2291.9 1651.95 2289C1643.22 2284.44 1639.31 2280.45 1635.14 2273.14L1632.58 2272.42C1632.16 2272.79 1631.75 2273.18 1631.32 2273.54C1625.39 2278.55 1605.8 2285.07 1603.81 2289.36L1606.58 2290.9L1590.53 2290.96C1586.87 2277.28 1589.44 2260.63 1589.51 2246.53L1590.01 2153.03C1598.31 2153.09 1607.89 2153.68 1615.87 2151.8C1656.46 2142.25 1696.67 2094.6 1738.51 2076.68C1768.92 2077.68 1804.14 2078.35 1833.02 2085.81C1836.49 2085.16 1837.1 2085.44 1839.63 2083.37C1840.19 2083.87 1840.74 2084.39 1841.33 2084.88C1845.85 2088.73 1852.69 2091.38 1858.14 2094.52C1875.19 2104.35 1896.42 2115.97 1906.71 2130.35C1914.65 2141.46 1912.75 2156.29 1920.36 2167.28C1934.4 2174.26 1955.54 2188.6 1962.84 2200.28C1975.09 2168.67 1987.96 2136.61 1997.29 2104.43C2011.84 2059.58 2028.17 2014.46 2045.56 1970.19C2072.78 1895.93 2096.26 1820.71 2121.18 1745.98C2130.74 1717.33 2141.71 1671.25 2157.48 1646.17C2166.42 1631.98 2182.76 1622.39 2202.04 1617.1Z"/>
	<path fill="#FCFCFC" transform="scale(0.365479 0.365727)" d="M2514.86 1875.44C2525.6 1874.86 2534.28 1875.65 2544.11 1879.27C2562.54 1886.06 2572.76 1897.93 2579.09 1912.25C2591.53 1940.38 2584.62 1972.58 2566.93 1998.53C2553.2 2018.68 2534.81 2033.42 2505.76 2040.61C2493.01 2041.74 2483.31 2041.33 2471.76 2036.68C2454.9 2029.9 2445.57 2018 2440.1 2004.58C2428.28 1975.6 2435.5 1939.76 2455.01 1913.57C2468.85 1894.98 2487.17 1881.26 2514.86 1875.44Z"/>
	<path fill="#020410" transform="scale(0.365479 0.365727)" d="M2045.56 1970.19C2072.78 1895.93 2096.26 1820.71 2121.18 1745.98C2130.74 1717.33 2141.71 1671.25 2157.48 1646.17C2166.42 1631.98 2182.76 1622.39 2202.04 1617.1C2220.12 1618.23 2238.28 1617.62 2256.39 1618.06C2216.77 1631.21 2191.8 1651.91 2176.11 1682.18C2162.63 1708.21 2155.33 1736.81 2146.29 1763.89L2106.34 1881.34Q2044.91 2062.36 1978.12 2242.29L2500.97 2241.93C2576.4 2241.78 2651.89 2241.21 2727.32 2241.76C2759.21 2242 2791.91 2241.29 2823.67 2242.95C2828.97 2243.23 2829.68 2243.24 2833.45 2245.87C2817.32 2263.17 2788.98 2281.61 2760.7 2285.59C2737.42 2289.03 2711.72 2287.6 2688.05 2287.67L2579.78 2287.93L2121.43 2287.62L1795.51 2288.98C1748.23 2289.11 1698.92 2291.9 1651.95 2289C1643.22 2284.44 1639.31 2280.45 1635.14 2273.14L1632.58 2272.42C1632.16 2272.79 1631.75 2273.18 1631.32 2273.54C1625.39 2278.55 1605.8 2285.07 1603.81 2289.36L1606.58 2290.9L1590.53 2290.96C1586.87 2277.28 1589.44 2260.63 1589.51 2246.53L1590.01 2153.03C1598.31 2153.09 1607.89 2153.68 1615.87 2151.8C1656.46 2142.25 1696.67 2094.6 1738.51 2076.68C1768.92 2077.68 1804.14 2078.35 1833.02 2085.81C1836.49 2085.16 1837.1 2085.44 1839.63 2083.37C1840.19 2083.87 1840.74 2084.39 1841.33 2084.88C1845.85 2088.73 1852.69 2091.38 1858.14 2094.52C1875.19 2104.35 1896.42 2115.97 1906.71 2130.35C1914.65 2141.46 1912.75 2156.29 1920.36 2167.28C1934.4 2174.26 1955.54 2188.6 1962.84 2200.28C1975.09 2168.67 1987.96 2136.61 1997.29 2104.43C2011.84 2059.58 2028.17 2014.46 2045.56 1970.19Z"/>
	<path fill="#1D7879" transform="scale(0.365479 0.365727)" d="M1869 2213.96C1875.37 2222.73 1881.21 2232.07 1890.04 2239.6C1828.66 2239.93 1767.22 2241.36 1705.85 2240.31L1705.84 2238.29C1727.59 2239.02 1837.96 2240.94 1851.5 2236.61L1853.19 2232.35L1855.92 2234.28C1861.69 2230.07 1865.62 2219.79 1869 2213.96Z"/>
	<path fill="#F1C4B9" transform="scale(0.365479 0.365727)" d="M1738.51 2076.68C1768.92 2077.68 1804.14 2078.35 1833.02 2085.81C1836.49 2085.16 1837.1 2085.44 1839.63 2083.37C1840.19 2083.87 1840.74 2084.39 1841.33 2084.88C1845.85 2088.73 1852.69 2091.38 1858.14 2094.52C1875.19 2104.35 1896.42 2115.97 1906.71 2130.35C1914.65 2141.46 1912.75 2156.29 1920.36 2167.28C1934.4 2174.26 1955.54 2188.6 1962.84 2200.28C1958.62 2210.95 1955.36 2232.56 1942.64 2238.68C1934.68 2242.51 1917.47 2241.3 1908.49 2239.85L1890.04 2239.6C1881.21 2232.07 1875.37 2222.73 1869 2213.96C1865.62 2219.79 1861.69 2230.07 1855.92 2234.28L1853.19 2232.35L1851.5 2236.61C1837.96 2240.94 1727.59 2239.02 1705.84 2238.29L1705.85 2240.31C1696.34 2244.26 1680.46 2242.88 1669.64 2243.3C1653.57 2249.78 1641.62 2256.75 1636.1 2270.38C1635.73 2271.29 1635.46 2272.22 1635.14 2273.14L1632.58 2272.42C1632.16 2272.79 1631.75 2273.18 1631.32 2273.54C1625.39 2278.55 1605.8 2285.07 1603.81 2289.36L1606.58 2290.9L1590.53 2290.96C1586.87 2277.28 1589.44 2260.63 1589.51 2246.53L1590.01 2153.03C1598.31 2153.09 1607.89 2153.68 1615.87 2151.8C1656.46 2142.25 1696.67 2094.6 1738.51 2076.68Z"/>
	<path fill="#1D7879" transform="scale(0.365479 0.365727)" d="M1920.36 2167.28C1934.4 2174.26 1955.54 2188.6 1962.84 2200.28C1958.62 2210.95 1955.36 2232.56 1942.64 2238.68C1934.68 2242.51 1917.47 2241.3 1908.49 2239.85C1916.96 2238.08 1927.66 2239.09 1936.5 2239.14C1927.15 2218.15 1934.81 2185.12 1920.36 2167.28Z"/>
	<path fill="#EA9E9B" transform="scale(0.365479 0.365727)" d="M1669.64 2243.3C1731.06 2210.51 1739.36 2181.88 1824.12 2171.08L1822.73 2176.81C1822.07 2177.15 1821.42 2177.49 1820.75 2177.81C1810.06 2183.02 1798.62 2185.83 1786.86 2189.29C1760.52 2197.03 1739.01 2208.35 1719.67 2223.97C1714.51 2228.13 1707.78 2232.62 1705.84 2238.29L1705.85 2240.31C1696.34 2244.26 1680.46 2242.88 1669.64 2243.3Z"/>
	<path fill="#D5DAE3" transform="scale(0.365479 0.365727)" d="M1824.12 2171.08C1832.84 2170.92 1838.67 2170.95 1845.2 2175.96C1857.79 2185.62 1861.73 2201.8 1869 2213.96C1865.62 2219.79 1861.69 2230.07 1855.92 2234.28L1853.19 2232.35L1851.5 2236.61C1837.96 2240.94 1727.59 2239.02 1705.84 2238.29C1707.78 2232.62 1714.51 2228.13 1719.67 2223.97C1739.01 2208.35 1760.52 2197.03 1786.86 2189.29C1798.62 2185.83 1810.06 2183.02 1820.75 2177.81C1821.42 2177.49 1822.07 2177.15 1822.73 2176.81L1824.12 2171.08Z"/>
	<path fill="#06333A" transform="scale(0.365479 0.365727)" d="M1824.12 2171.08C1832.84 2170.92 1838.67 2170.95 1845.2 2175.96C1857.79 2185.62 1861.73 2201.8 1869 2213.96C1865.62 2219.79 1861.69 2230.07 1855.92 2234.28L1853.19 2232.35C1845.89 2211.72 1837.29 2195.33 1822.73 2176.81L1824.12 2171.08Z"/>
	<path fill="#95BEC0" transform="scale(0.365479 0.365727)" d="M2445.39 376.648C2624.74 374.292 2804.66 376.326 2984.07 376.509L3123.78 376.434C3146.59 376.424 3173.41 374.453 3195.67 377.901Q3195.58 414.293 3196 450.681C3231.98 452.626 3260.08 459.335 3284.45 480.649C3306.67 500.096 3320 523.877 3329.29 548.312C3335.83 589.509 3331.51 642.221 3331.46 684.693L3331.06 944.537C3331.05 954.599 3328.79 1002.46 3331.72 1007.64C3332.39 1008.82 3334.56 1011.01 3335.87 1011.85L3331.12 1014.35C3328.25 1036.64 3330.48 1060.63 3330.44 1083.09L3330.2 1219.09C3330.13 1248.2 3332.2 1278.11 3323.15 1306.64C3313.35 1337.5 3293.71 1366.01 3260.87 1386.4C3245.34 1396.05 3227.46 1403.27 3207.25 1405.13C3186.91 1407 3165.39 1406.27 3144.89 1406.37L3041.68 1406.69L2669.66 1405.85Q2574.41 1406.01 2479.17 1407.05C2453.02 1407.27 2422.75 1409.83 2397 1407.62C2382.04 1406.34 2343.41 1387.79 2342.33 1387.78C2341.11 1387.75 2339.98 1388.28 2338.8 1388.53C2338.38 1388.26 2337.9 1388.04 2337.54 1387.72C2320.33 1372.8 2308.61 1344.94 2305.59 1325.58C2300.91 1295.58 2303.74 1263.78 2303.75 1233.51L2303.31 1076.49L2302.75 743.113C2302.76 691.1 2300.15 638.319 2302.61 586.37C2303.13 575.445 2307.73 565.147 2308.35 554.235C2308.38 553.729 2308.39 553.224 2308.41 552.718C2318.81 525.225 2329.05 499.959 2353.74 477.546C2377.67 455.826 2407.87 442.976 2445.25 440.18L2445.39 376.648Z"/>
	<path fill="#FCFCFC" transform="scale(0.365479 0.365727)" d="M2389.87 1126.09C2393.32 1125.91 2396.73 1125.82 2400.17 1126.14C2410.36 1127.07 2420.4 1132.22 2426.43 1138.37C2434.52 1146.59 2437.61 1158.11 2435.51 1168.14C2432.6 1181.97 2423.23 1190.47 2408.33 1198.22C2404.03 1198.6 2399.93 1198.95 2395.62 1198.48C2385.54 1197.37 2376.43 1192.42 2370.78 1186.14C2362.24 1176.64 2360.32 1163.74 2363.57 1152.7C2367.34 1139.91 2375.36 1132.76 2389.87 1126.09Z"/>
	<path fill="#FCFCFC" transform="scale(0.365479 0.365727)" d="M2396.48 660.499C2400.76 660.75 2404.48 661.128 2408.51 662.328C2419.49 665.607 2427.87 673.177 2431.97 681.389C2437.9 693.265 2437.3 706.914 2429.62 718.243C2423.27 727.618 2414.7 731.57 2401.85 734.856C2396.43 734.629 2391.6 734.358 2386.59 732.663C2376.92 729.392 2369.49 722.454 2365.78 715.095C2359.75 703.122 2360.99 688.82 2368.58 677.415C2375.09 667.616 2382.92 663.812 2396.48 660.499Z"/>
	<path fill="#FCFCFC" transform="scale(0.365479 0.365727)" d="M2390.31 889.434C2395.42 889.227 2400.59 888.963 2405.56 890.07C2416.79 892.569 2425.9 899.062 2431.18 906.803C2438.31 917.275 2439.12 930.305 2434.07 941.382C2428.99 952.504 2420.18 959.178 2406.42 964.335C2402.26 964.613 2397.82 964.994 2393.68 964.407C2383.06 962.901 2373.29 956.73 2368.03 949.796C2359.6 938.682 2358.81 924.232 2364.07 912.228C2368.94 901.11 2376.73 894.829 2390.31 889.434Z"/>
	<path fill="#FCFCFC" transform="scale(0.365479 0.365727)" d="M2498.29 743.414Q2660.44 742.756 2822.59 743.389C2866.98 743.515 2934.19 741.062 2975.47 744.667C2980.61 745.116 2984.78 745.68 2988.74 748.498C2994.41 752.537 2995.67 758.807 2995.17 764.405C2994.38 773.223 2991.7 778.061 2983.13 783.962C2891.41 784.682 2799.59 783.764 2707.86 783.823C2642.75 783.865 2576.93 785.488 2511.89 783.717C2503.25 783.482 2494.84 783.165 2489.2 777.48C2483.92 772.162 2483.43 764.554 2484.9 758.246C2486.6 750.887 2490.26 747.494 2498.29 743.414Z"/>
	<path fill="#FCFCFC" transform="scale(0.365479 0.365727)" d="M2501.88 980.405C2602.09 978.269 2702.92 979.808 2803.21 979.736L2906.19 979.71C2933.63 979.72 2962.21 978.217 2989.15 982.736C2992.48 984.834 2993.25 985.995 2994.68 989.027C2998.02 996.085 2996.67 1005.45 2992.02 1012.03C2988.76 1016.63 2984.96 1019.03 2978.37 1020.66L2639.99 1021.12C2608.72 1021.2 2528.07 1024.23 2502.32 1020.45C2495.97 1019.52 2490.17 1016.81 2486.96 1012.49C2483.07 1007.26 2483.34 1000.73 2485.47 995.11C2488.27 987.704 2493.09 984.022 2501.88 980.405Z"/>
	<path fill="#FCFCFC" transform="scale(0.365479 0.365727)" d="M2499.11 1215.15C2501.91 1214.94 2504.65 1214.85 2507.48 1214.82C2619.39 1213.44 2731.51 1214.6 2843.45 1214.54C2870.64 1214.53 2961.42 1211.87 2982.38 1215.39C2985.93 1215.98 2988.48 1217.72 2990.92 1219.65C2996.36 1223.95 2998.42 1229.62 2997.68 1235.45C2996.54 1244.43 2992.61 1248.71 2983.49 1254.23C2892.08 1256.99 2799.72 1255.67 2708.19 1256.1C2647.03 1256.39 2571.93 1259.21 2512.37 1255.81C2503.34 1255.3 2494.9 1254.6 2489.27 1248.5C2485.09 1243.96 2484.58 1238.19 2485.51 1232.87C2486.94 1224.71 2490.74 1220.24 2499.11 1215.15Z"/>
	<path fill="#FCFCFC" transform="scale(0.365479 0.365727)" d="M2509.9 899.11L2997.29 899.132L3128.75 899.303C3154.43 899.147 3180.64 897.846 3206.24 898.947C3213.83 899.274 3221.42 900.231 3228.2 902.959C3234.07 905.324 3238.18 908.842 3239.84 913.78C3241.57 918.939 3240.01 927.688 3236.12 932.178C3231.7 937.289 3227.36 938.704 3219.96 940.169L2760.16 939.811C2678.36 939.703 2592.41 942.116 2511.2 939.062C2505.26 938.839 2498.19 938.766 2493.22 935.93C2488.28 933.107 2485.48 928.055 2484.68 923.553C2483.62 917.542 2484.16 909.38 2489.89 904.659C2495.98 899.64 2501.41 899.273 2509.9 899.11Z"/>
	<path fill="#FCFCFC" transform="scale(0.365479 0.365727)" d="M2500.16 1132.44C2578.11 1130.59 2656.72 1131.65 2734.74 1131.72Q2943.79 1132.78 3152.85 1131.9C3167.27 1131.87 3211.42 1129.11 3220.29 1137.39C3226.02 1142.74 3225.99 1150.64 3224.76 1157.09C3223.23 1165.15 3220.35 1169.05 3211.67 1173.8C3210.98 1173.82 3210.3 1173.85 3209.62 1173.87C3162.17 1175.05 3114.25 1174.06 3066.77 1174.08L2791.29 1174.19L2605.61 1174.28C2573.29 1174.31 2539.91 1175.72 2507.76 1174C2500.65 1173.62 2495.91 1173.18 2490.98 1168.89C2485.99 1164.56 2484.88 1158.44 2485.59 1152.93C2486.76 1143.72 2490.58 1138.11 2500.16 1132.44Z"/>
	<path fill="#FCFCFC" transform="scale(0.365479 0.365727)" d="M2573.45 660.962L3001.18 660.715L3150.08 660.545C3169.89 660.501 3190.19 659.249 3209.92 659.871C3217.54 660.111 3226.07 661.603 3232.45 664.867Q3233.04 665.162 3233.6 665.481Q3234.16 665.8 3234.7 666.142Q3235.24 666.483 3235.76 666.846Q3236.27 667.209 3236.76 667.592Q3237.25 667.976 3237.71 668.378Q3238.17 668.781 3238.6 669.202Q3239.03 669.623 3239.43 670.061Q3239.83 670.498 3240.19 670.952Q3240.56 671.405 3240.89 671.873Q3241.23 672.341 3241.53 672.821Q3241.83 673.302 3242.09 673.794Q3242.36 674.286 3242.59 674.789Q3242.82 675.291 3243.01 675.802Q3243.2 676.313 3243.36 676.831Q3243.51 677.349 3243.63 677.873Q3243.75 678.396 3243.83 678.924C3244.72 685.241 3241.64 691.815 3235.89 696.428C3221.78 707.75 3169.69 702.863 3149 702.799L2722.05 703.219C2680.98 703.319 2639.85 702.898 2598.79 703.304C2571.39 703.574 2542.71 705.282 2515.45 703.914C2506.85 703.482 2497.31 701.789 2490.88 697.165C2485.51 693.296 2483.21 687.826 2483.23 682.319C2483.25 676.632 2484.38 670.573 2490.48 666.675C2506.49 656.455 2552.43 660.859 2573.45 660.962Z"/>
	<path fill="#2A8A8C" transform="scale(0.365479 0.365727)" d="M2447.51 378.749L2955.85 378.376L3110.56 378.93C3138.12 379.034 3168.54 381.138 3195.67 377.901Q3195.58 414.293 3196 450.681C3197.11 462.119 3196.65 473.667 3196.55 485.13C3196.53 502.753 3197.49 520.721 3196.35 538.301C3175.06 541.411 3149.13 539.443 3127.21 539.456L2985.31 539.479L2446.37 539.414L2447.51 378.749Z"/>
	<path fill="#1D7879" transform="scale(0.365479 0.365727)" d="M2448.63 483.791C2514.41 485.85 2580.98 484.366 2646.85 484.437L3012.19 484.827L3136.24 484.714C3155.01 484.638 3178.3 482.577 3196.55 485.13C3196.53 502.753 3197.49 520.721 3196.35 538.301C3172.98 535.426 3146.28 537.289 3122.44 537.31L2974.65 537.46L2448.58 537.376L2448.63 483.791Z"/>
	<defs>
		<linearGradient id="gradient_5" gradientUnits="userSpaceOnUse" x1="2323.5046" y1="2377.0435" x2="2330.5049" y2="2858.554">
			<stop offset="0" stop-color="#1C5455"/>
			<stop offset="1" stop-color="#216566"/>
		</linearGradient>
	</defs>
	<path fill="url(#gradient_5)" transform="scale(0.365479 0.365727)" d="M926.181 2269.57C926.877 2274.89 927.716 2280.18 927.635 2285.54C928.443 2289.52 927.569 2291.34 932.029 2293.9C991.665 2295.92 1055.29 2296.25 1114.78 2292.91C1118.29 2290.08 1118.02 2289.56 1118.62 2285.64L1119.56 2285.35C1119.88 2285.07 1120.12 2284.74 1120.5 2284.51C1128.97 2279.32 1495.77 2282.64 1542.48 2282.48L1542.46 2290.76C1546.53 2296.03 1547.91 2298.69 1556.29 2300.24C1567.45 2302.32 1575.25 2301.6 1585.69 2298.35C1588.37 2295.81 1589.46 2294.11 1590.53 2290.96L1606.58 2290.9L1603.81 2289.36C1605.8 2285.07 1625.39 2278.55 1631.32 2273.54C1631.75 2273.18 1632.16 2272.79 1632.58 2272.42L1635.14 2273.14C1639.31 2280.45 1643.22 2284.44 1651.95 2289C1698.92 2291.9 1748.23 2289.11 1795.51 2288.98L2121.43 2287.62L2579.78 2287.93L2688.05 2287.67C2711.72 2287.6 2737.42 2289.03 2760.7 2285.59L2762.71 2288.5C2787.06 2292.84 2845.12 2289.57 2873.4 2289.52L3075.74 2289.6C3113.18 2289.65 3151.17 2288.7 3188.55 2290.06L3199.24 2289.61C3245.43 2291.73 3293.44 2291.08 3339.69 2289.77C3371.46 2289.37 3455.87 2285.21 3482.72 2289.63C3492.42 2291.23 3501.39 2294.63 3508.56 2299.84C3521.54 2309.28 3526.07 2322.09 3525.67 2335.38C3525.28 2348.75 3520.08 2361.83 3506.43 2370.91C3499.9 2375.26 3491.49 2378.34 3482.99 2379.73C3464.97 2382.69 3443.77 2381.22 3425.39 2381.2L3330.5 2381.03C3330.15 2538.81 3327.88 2696.79 3330.41 2854.55L3582.32 2854.46C3640.3 2854.44 3698.79 2855.52 3756.72 2854L3758.85 2856.43C3719.29 2855.13 3679.14 2856.29 3639.49 2856.29L3406.94 2856.47L2916.61 2854.98L1325.83 2855.42C1325.97 2813.83 1327.12 2772.06 1325.57 2730.49C1327.24 2636.21 1325.79 2541.78 1326.13 2447.49C1290.76 2449.46 1253.59 2447.61 1217.95 2447.59L996.311 2447.73L835.772 2448.02C810.831 2448.1 782.945 2450.26 758.47 2447.64Q758.704 2416.54 758.087 2385.44L756.004 2385.45C741.791 2383.1 723.127 2384.46 708.441 2384.49L594.011 2384.72C575.649 2384.75 555.318 2386.03 537.194 2384.18C531.623 2383.61 526.771 2382.21 521.9 2380.14C509.325 2374.79 501.413 2365.44 497.779 2355.08C492.443 2339.88 494.821 2321.93 505.837 2308.42C514.728 2297.51 525.87 2291.93 542.193 2289.18C592.922 2291.06 643.847 2289.6 694.612 2289.49C723.472 2289.43 754.165 2291.43 782.707 2289.63C799.88 2289.85 875.609 2293.31 885.247 2287.88C895.72 2294.63 914.689 2292.06 927.796 2291.87C926.104 2284.13 925.016 2277.47 926.181 2269.57Z"/>
	<defs>
		<linearGradient id="gradient_6" gradientUnits="userSpaceOnUse" x1="1518.6547" y1="2882.5615" x2="2498.4175" y2="1789.6711">
			<stop offset="0" stop-color="#084B4A"/>
			<stop offset="1" stop-color="#1A636B"/>
		</linearGradient>
	</defs>
	<path fill="url(#gradient_6)" transform="scale(0.365479 0.365727)" d="M926.181 2269.57C926.877 2274.89 927.716 2280.18 927.635 2285.54C928.443 2289.52 927.569 2291.34 932.029 2293.9C991.665 2295.92 1055.29 2296.25 1114.78 2292.91C1118.29 2290.08 1118.02 2289.56 1118.62 2285.64L1119.56 2285.35C1119.88 2285.07 1120.12 2284.74 1120.5 2284.51C1128.97 2279.32 1495.77 2282.64 1542.48 2282.48L1542.46 2290.76C1546.53 2296.03 1547.91 2298.69 1556.29 2300.24C1567.45 2302.32 1575.25 2301.6 1585.69 2298.35C1588.37 2295.81 1589.46 2294.11 1590.53 2290.96L1606.58 2290.9L1603.81 2289.36C1605.8 2285.07 1625.39 2278.55 1631.32 2273.54C1631.75 2273.18 1632.16 2272.79 1632.58 2272.42L1635.14 2273.14C1639.31 2280.45 1643.22 2284.44 1651.95 2289C1698.92 2291.9 1748.23 2289.11 1795.51 2288.98L2121.43 2287.62L2579.78 2287.93L2688.05 2287.67C2711.72 2287.6 2737.42 2289.03 2760.7 2285.59L2762.71 2288.5C2787.06 2292.84 2845.12 2289.57 2873.4 2289.52L3075.74 2289.6C3113.18 2289.65 3151.17 2288.7 3188.55 2290.06L3199.24 2289.61C3245.43 2291.73 3293.44 2291.08 3339.69 2289.77C3371.46 2289.37 3455.87 2285.21 3482.72 2289.63C3492.42 2291.23 3501.39 2294.63 3508.56 2299.84C3521.54 2309.28 3526.07 2322.09 3525.67 2335.38C3525.28 2348.75 3520.08 2361.83 3506.43 2370.91C3499.9 2375.26 3491.49 2378.34 3482.99 2379.73C3464.97 2382.69 3443.77 2381.22 3425.39 2381.2L3330.5 2381.03L1666.91 2380.94C1629.67 2380.87 1333.38 2380.02 1327.39 2384.56C1326.72 2385.07 1325.94 2385.54 1325.48 2386.16Q1326.45 2416.82 1326.13 2447.49C1290.76 2449.46 1253.59 2447.61 1217.95 2447.59L996.311 2447.73L835.772 2448.02C810.831 2448.1 782.945 2450.26 758.47 2447.64Q758.704 2416.54 758.087 2385.44L756.004 2385.45C741.791 2383.1 723.127 2384.46 708.441 2384.49L594.011 2384.72C575.649 2384.75 555.318 2386.03 537.194 2384.18C531.623 2383.61 526.771 2382.21 521.9 2380.14C509.325 2374.79 501.413 2365.44 497.779 2355.08C492.443 2339.88 494.821 2321.93 505.837 2308.42C514.728 2297.51 525.87 2291.93 542.193 2289.18C592.922 2291.06 643.847 2289.6 694.612 2289.49C723.472 2289.43 754.165 2291.43 782.707 2289.63C799.88 2289.85 875.609 2293.31 885.247 2287.88C895.72 2294.63 914.689 2292.06 927.796 2291.87C926.104 2284.13 925.016 2277.47 926.181 2269.57Z"/>
	<path fill="#D5DAE3" transform="scale(0.365479 0.365727)" d="M1606.58 2290.9L1603.81 2289.36C1605.8 2285.07 1625.39 2278.55 1631.32 2273.54C1631.75 2273.18 1632.16 2272.79 1632.58 2272.42L1635.14 2273.14C1639.31 2280.45 1643.22 2284.44 1651.95 2289C1641.04 2293.22 1618.97 2291.12 1606.58 2290.9Z"/>
	<path fill="#020410" transform="scale(0.365479 0.365727)" d="M1119.56 2285.35C1119.88 2285.07 1120.12 2284.74 1120.5 2284.51C1128.97 2279.32 1495.77 2282.64 1542.48 2282.48L1542.46 2290.76C1451.62 2288.79 1360.17 2289.93 1269.29 2290.22C1244.95 2290.3 1135.52 2293.35 1121.48 2289.56L1119.56 2285.35Z"/>
	<path fill="#06333A" transform="scale(0.365479 0.365727)" d="M758.087 2385.44C768.33 2382.71 1312.92 2382.65 1325.48 2386.16Q1326.45 2416.82 1326.13 2447.49C1290.76 2449.46 1253.59 2447.61 1217.95 2447.59L996.311 2447.73L835.772 2448.02C810.831 2448.1 782.945 2450.26 758.47 2447.64Q758.704 2416.54 758.087 2385.44Z"/>
</svg>
